<?xml version="1.0" encoding="UTF-8" standalone="no"?>
<svg xmlns="http://www.w3.org/2000/svg" version="1.0" width="1600" height="1600" id="4-cube_t12.svg">
<g style="stroke:#000000;stroke-width:8.5;stroke-opacity:0.50;">
<line x1="1422.318" y1="407.565" x2="1327.097" y2="502.786"/>
<line x1="1422.318" y1="407.565" x2="1192.435" y2="177.682"/>
<line x1="1422.318" y1="407.565" x2="1422.318" y2="542.228"/>
<line x1="1422.318" y1="407.565" x2="1517.538" y2="637.448"/>
<line x1="1152.993" y1="1057.772" x2="1057.772" y2="1152.993"/>
<line x1="1152.993" y1="1057.772" x2="923.110" y2="827.889"/>
<line x1="1152.993" y1="1057.772" x2="1152.993" y2="1192.435"/>
<line x1="1152.993" y1="1057.772" x2="1382.876" y2="962.552"/>
<line x1="772.111" y1="676.890" x2="676.890" y2="772.111"/>
<line x1="772.111" y1="676.890" x2="542.228" y2="447.007"/>
<line x1="772.111" y1="676.890" x2="1097.214" y2="676.890"/>
<line x1="772.111" y1="676.890" x2="867.331" y2="906.773"/>
<line x1="502.786" y1="1327.097" x2="407.565" y2="1422.318"/>
<line x1="502.786" y1="1327.097" x2="272.903" y2="1097.214"/>
<line x1="502.786" y1="1327.097" x2="827.889" y2="1327.097"/>
<line x1="502.786" y1="1327.097" x2="732.669" y2="1231.876"/>
<line x1="1097.214" y1="272.903" x2="1327.097" y2="502.786"/>
<line x1="1097.214" y1="272.903" x2="1192.435" y2="177.682"/>
<line x1="1097.214" y1="272.903" x2="772.111" y2="272.903"/>
<line x1="1097.214" y1="272.903" x2="867.331" y2="368.124"/>
<line x1="827.889" y1="923.110" x2="1057.772" y2="1152.993"/>
<line x1="827.889" y1="923.110" x2="923.110" y2="827.889"/>
<line x1="827.889" y1="923.110" x2="502.786" y2="923.110"/>
<line x1="827.889" y1="923.110" x2="732.669" y2="693.227"/>
<line x1="447.007" y1="542.228" x2="676.890" y2="772.111"/>
<line x1="447.007" y1="542.228" x2="542.228" y2="447.007"/>
<line x1="447.007" y1="542.228" x2="447.007" y2="407.565"/>
<line x1="447.007" y1="542.228" x2="217.124" y2="637.448"/>
<line x1="177.682" y1="1192.435" x2="407.565" y2="1422.318"/>
<line x1="177.682" y1="1192.435" x2="272.903" y2="1097.214"/>
<line x1="177.682" y1="1192.435" x2="177.682" y2="1057.772"/>
<line x1="177.682" y1="1192.435" x2="82.462" y2="962.552"/>
<line x1="1327.097" y1="502.786" x2="1231.876" y2="732.669"/>
<line x1="1327.097" y1="502.786" x2="1327.097" y2="827.889"/>
<line x1="1057.772" y1="1152.993" x2="962.552" y2="1382.876"/>
<line x1="1057.772" y1="1152.993" x2="1192.435" y2="1152.993"/>
<line x1="676.890" y1="772.111" x2="906.773" y2="867.331"/>
<line x1="676.890" y1="772.111" x2="676.890" y2="1097.214"/>
<line x1="407.565" y1="1422.318" x2="637.448" y2="1517.538"/>
<line x1="407.565" y1="1422.318" x2="542.228" y2="1422.318"/>
<line x1="1192.435" y1="177.682" x2="962.552" y2="82.462"/>
<line x1="1192.435" y1="177.682" x2="1057.772" y2="177.682"/>
<line x1="923.110" y1="827.889" x2="693.227" y2="732.669"/>
<line x1="923.110" y1="827.889" x2="923.110" y2="502.786"/>
<line x1="542.228" y1="447.007" x2="637.448" y2="217.124"/>
<line x1="542.228" y1="447.007" x2="407.565" y2="447.007"/>
<line x1="272.903" y1="1097.214" x2="368.124" y2="867.331"/>
<line x1="272.903" y1="1097.214" x2="272.903" y2="772.111"/>
<line x1="1422.318" y1="542.228" x2="1327.097" y2="772.111"/>
<line x1="1422.318" y1="542.228" x2="1192.435" y2="447.007"/>
<line x1="1422.318" y1="542.228" x2="1517.538" y2="637.448"/>
<line x1="1152.993" y1="1192.435" x2="1057.772" y2="1422.318"/>
<line x1="1152.993" y1="1192.435" x2="923.110" y2="1097.214"/>
<line x1="1152.993" y1="1192.435" x2="1382.876" y2="962.552"/>
<line x1="1097.214" y1="676.890" x2="1327.097" y2="772.111"/>
<line x1="1097.214" y1="676.890" x2="1192.435" y2="447.007"/>
<line x1="1097.214" y1="676.890" x2="867.331" y2="906.773"/>
<line x1="827.889" y1="1327.097" x2="1057.772" y2="1422.318"/>
<line x1="827.889" y1="1327.097" x2="923.110" y2="1097.214"/>
<line x1="827.889" y1="1327.097" x2="732.669" y2="1231.876"/>
<line x1="772.111" y1="272.903" x2="676.890" y2="502.786"/>
<line x1="772.111" y1="272.903" x2="542.228" y2="177.682"/>
<line x1="772.111" y1="272.903" x2="867.331" y2="368.124"/>
<line x1="502.786" y1="923.110" x2="407.565" y2="1152.993"/>
<line x1="502.786" y1="923.110" x2="272.903" y2="827.889"/>
<line x1="502.786" y1="923.110" x2="732.669" y2="693.227"/>
<line x1="447.007" y1="407.565" x2="676.890" y2="502.786"/>
<line x1="447.007" y1="407.565" x2="542.228" y2="177.682"/>
<line x1="447.007" y1="407.565" x2="217.124" y2="637.448"/>
<line x1="177.682" y1="1057.772" x2="407.565" y2="1152.993"/>
<line x1="177.682" y1="1057.772" x2="272.903" y2="827.889"/>
<line x1="177.682" y1="1057.772" x2="82.462" y2="962.552"/>
<line x1="1231.876" y1="732.669" x2="1231.876" y2="867.331"/>
<line x1="1231.876" y1="732.669" x2="906.773" y2="732.669"/>
<line x1="1231.876" y1="732.669" x2="1327.097" y2="827.889"/>
<line x1="962.552" y1="1382.876" x2="962.552" y2="1517.538"/>
<line x1="962.552" y1="1382.876" x2="637.448" y2="1382.876"/>
<line x1="962.552" y1="1382.876" x2="1192.435" y2="1152.993"/>
<line x1="906.773" y1="867.331" x2="1231.876" y2="867.331"/>
<line x1="906.773" y1="867.331" x2="906.773" y2="732.669"/>
<line x1="906.773" y1="867.331" x2="676.890" y2="1097.214"/>
<line x1="637.448" y1="1517.538" x2="962.552" y2="1517.538"/>
<line x1="637.448" y1="1517.538" x2="637.448" y2="1382.876"/>
<line x1="637.448" y1="1517.538" x2="542.228" y2="1422.318"/>
<line x1="962.552" y1="82.462" x2="962.552" y2="217.124"/>
<line x1="962.552" y1="82.462" x2="637.448" y2="82.462"/>
<line x1="962.552" y1="82.462" x2="1057.772" y2="177.682"/>
<line x1="693.227" y1="732.669" x2="693.227" y2="867.331"/>
<line x1="693.227" y1="732.669" x2="368.124" y2="732.669"/>
<line x1="693.227" y1="732.669" x2="923.110" y2="502.786"/>
<line x1="637.448" y1="217.124" x2="962.552" y2="217.124"/>
<line x1="637.448" y1="217.124" x2="637.448" y2="82.462"/>
<line x1="637.448" y1="217.124" x2="407.565" y2="447.007"/>
<line x1="368.124" y1="867.331" x2="693.227" y2="867.331"/>
<line x1="368.124" y1="867.331" x2="368.124" y2="732.669"/>
<line x1="368.124" y1="867.331" x2="272.903" y2="772.111"/>
<line x1="1327.097" y1="772.111" x2="1231.876" y2="867.331"/>
<line x1="1327.097" y1="772.111" x2="1327.097" y2="1097.214"/>
<line x1="1057.772" y1="1422.318" x2="962.552" y2="1517.538"/>
<line x1="1057.772" y1="1422.318" x2="1192.435" y2="1422.318"/>
<line x1="676.890" y1="502.786" x2="906.773" y2="732.669"/>
<line x1="676.890" y1="502.786" x2="676.890" y2="827.889"/>
<line x1="407.565" y1="1152.993" x2="637.448" y2="1382.876"/>
<line x1="407.565" y1="1152.993" x2="542.228" y2="1152.993"/>
<line x1="1192.435" y1="447.007" x2="962.552" y2="217.124"/>
<line x1="1192.435" y1="447.007" x2="1057.772" y2="447.007"/>
<line x1="923.110" y1="1097.214" x2="693.227" y2="867.331"/>
<line x1="923.110" y1="1097.214" x2="923.110" y2="772.111"/>
<line x1="542.228" y1="177.682" x2="637.448" y2="82.462"/>
<line x1="542.228" y1="177.682" x2="407.565" y2="177.682"/>
<line x1="272.903" y1="827.889" x2="368.124" y2="732.669"/>
<line x1="272.903" y1="827.889" x2="272.903" y2="502.786"/>
<line x1="1231.876" y1="867.331" x2="1327.097" y2="1097.214"/>
<line x1="962.552" y1="1517.538" x2="1192.435" y2="1422.318"/>
<line x1="906.773" y1="732.669" x2="676.890" y2="827.889"/>
<line x1="637.448" y1="1382.876" x2="542.228" y2="1152.993"/>
<line x1="962.552" y1="217.124" x2="1057.772" y2="447.007"/>
<line x1="693.227" y1="867.331" x2="923.110" y2="772.111"/>
<line x1="637.448" y1="82.462" x2="407.565" y2="177.682"/>
<line x1="368.124" y1="732.669" x2="272.903" y2="502.786"/>
<line x1="1517.538" y1="637.448" x2="1517.538" y2="962.552"/>
<line x1="1517.538" y1="637.448" x2="1382.876" y2="637.448"/>
<line x1="1382.876" y1="962.552" x2="1517.538" y2="962.552"/>
<line x1="1382.876" y1="962.552" x2="1382.876" y2="637.448"/>
<line x1="867.331" y1="906.773" x2="867.331" y2="1231.876"/>
<line x1="867.331" y1="906.773" x2="732.669" y2="906.773"/>
<line x1="732.669" y1="1231.876" x2="867.331" y2="1231.876"/>
<line x1="732.669" y1="1231.876" x2="732.669" y2="906.773"/>
<line x1="867.331" y1="368.124" x2="867.331" y2="693.227"/>
<line x1="867.331" y1="368.124" x2="732.669" y2="368.124"/>
<line x1="732.669" y1="693.227" x2="867.331" y2="693.227"/>
<line x1="732.669" y1="693.227" x2="732.669" y2="368.124"/>
<line x1="217.124" y1="637.448" x2="217.124" y2="962.552"/>
<line x1="217.124" y1="637.448" x2="82.462" y2="637.448"/>
<line x1="82.462" y1="962.552" x2="217.124" y2="962.552"/>
<line x1="82.462" y1="962.552" x2="82.462" y2="637.448"/>
<line x1="1327.097" y1="827.889" x2="1422.318" y2="1057.772"/>
<line x1="1327.097" y1="827.889" x2="1097.214" y2="923.110"/>
<line x1="1192.435" y1="1152.993" x2="1422.318" y2="1057.772"/>
<line x1="1192.435" y1="1152.993" x2="1097.214" y2="923.110"/>
<line x1="676.890" y1="1097.214" x2="772.111" y2="1327.097"/>
<line x1="676.890" y1="1097.214" x2="447.007" y2="1192.435"/>
<line x1="542.228" y1="1422.318" x2="772.111" y2="1327.097"/>
<line x1="542.228" y1="1422.318" x2="447.007" y2="1192.435"/>
<line x1="1057.772" y1="177.682" x2="1152.993" y2="407.565"/>
<line x1="1057.772" y1="177.682" x2="827.889" y2="272.903"/>
<line x1="923.110" y1="502.786" x2="1152.993" y2="407.565"/>
<line x1="923.110" y1="502.786" x2="827.889" y2="272.903"/>
<line x1="407.565" y1="447.007" x2="502.786" y2="676.890"/>
<line x1="407.565" y1="447.007" x2="177.682" y2="542.228"/>
<line x1="272.903" y1="772.111" x2="502.786" y2="676.890"/>
<line x1="272.903" y1="772.111" x2="177.682" y2="542.228"/>
<line x1="1327.097" y1="1097.214" x2="1422.318" y2="1192.435"/>
<line x1="1327.097" y1="1097.214" x2="1097.214" y2="1327.097"/>
<line x1="1192.435" y1="1422.318" x2="1422.318" y2="1192.435"/>
<line x1="1192.435" y1="1422.318" x2="1097.214" y2="1327.097"/>
<line x1="676.890" y1="827.889" x2="772.111" y2="923.110"/>
<line x1="676.890" y1="827.889" x2="447.007" y2="1057.772"/>
<line x1="542.228" y1="1152.993" x2="772.111" y2="923.110"/>
<line x1="542.228" y1="1152.993" x2="447.007" y2="1057.772"/>
<line x1="1057.772" y1="447.007" x2="1152.993" y2="542.228"/>
<line x1="1057.772" y1="447.007" x2="827.889" y2="676.890"/>
<line x1="923.110" y1="772.111" x2="1152.993" y2="542.228"/>
<line x1="923.110" y1="772.111" x2="827.889" y2="676.890"/>
<line x1="407.565" y1="177.682" x2="502.786" y2="272.903"/>
<line x1="407.565" y1="177.682" x2="177.682" y2="407.565"/>
<line x1="272.903" y1="502.786" x2="502.786" y2="272.903"/>
<line x1="272.903" y1="502.786" x2="177.682" y2="407.565"/>
<line x1="1517.538" y1="962.552" x2="1422.318" y2="1057.772"/>
<line x1="1517.538" y1="962.552" x2="1422.318" y2="1192.435"/>
<line x1="867.331" y1="1231.876" x2="772.111" y2="1327.097"/>
<line x1="867.331" y1="1231.876" x2="1097.214" y2="1327.097"/>
<line x1="867.331" y1="693.227" x2="1097.214" y2="923.110"/>
<line x1="867.331" y1="693.227" x2="772.111" y2="923.110"/>
<line x1="217.124" y1="962.552" x2="447.007" y2="1192.435"/>
<line x1="217.124" y1="962.552" x2="447.007" y2="1057.772"/>
<line x1="1382.876" y1="637.448" x2="1152.993" y2="407.565"/>
<line x1="1382.876" y1="637.448" x2="1152.993" y2="542.228"/>
<line x1="732.669" y1="906.773" x2="502.786" y2="676.890"/>
<line x1="732.669" y1="906.773" x2="827.889" y2="676.890"/>
<line x1="732.669" y1="368.124" x2="827.889" y2="272.903"/>
<line x1="732.669" y1="368.124" x2="502.786" y2="272.903"/>
<line x1="82.462" y1="637.448" x2="177.682" y2="542.228"/>
<line x1="82.462" y1="637.448" x2="177.682" y2="407.565"/>
<line x1="1422.318" y1="1057.772" x2="1422.318" y2="1192.435"/>
<line x1="772.111" y1="1327.097" x2="1097.214" y2="1327.097"/>
<line x1="1097.214" y1="923.110" x2="772.111" y2="923.110"/>
<line x1="447.007" y1="1192.435" x2="447.007" y2="1057.772"/>
<line x1="1152.993" y1="407.565" x2="1152.993" y2="542.228"/>
<line x1="502.786" y1="676.890" x2="827.889" y2="676.890"/>
<line x1="827.889" y1="272.903" x2="502.786" y2="272.903"/>
<line x1="177.682" y1="542.228" x2="177.682" y2="407.565"/>
</g>
<g style="stroke:#000000;stroke-width:4.3;fill:#ff0000">
<circle cx="1422.318" cy="407.565" r="25.6"/>
<circle cx="1152.993" cy="1057.772" r="25.6"/>
<circle cx="772.111" cy="676.890" r="25.6"/>
<circle cx="502.786" cy="1327.097" r="25.6"/>
<circle cx="1097.214" cy="272.903" r="25.6"/>
<circle cx="827.889" cy="923.110" r="25.6"/>
<circle cx="447.007" cy="542.228" r="25.6"/>
<circle cx="177.682" cy="1192.435" r="25.6"/>
<circle cx="1327.097" cy="502.786" r="25.6"/>
<circle cx="1057.772" cy="1152.993" r="25.6"/>
<circle cx="676.890" cy="772.111" r="25.6"/>
<circle cx="407.565" cy="1422.318" r="25.6"/>
<circle cx="1192.435" cy="177.682" r="25.6"/>
<circle cx="923.110" cy="827.889" r="25.6"/>
<circle cx="542.228" cy="447.007" r="25.6"/>
<circle cx="272.903" cy="1097.214" r="25.6"/>
<circle cx="1422.318" cy="542.228" r="25.6"/>
<circle cx="1152.993" cy="1192.435" r="25.6"/>
<circle cx="1097.214" cy="676.890" r="25.6"/>
<circle cx="827.889" cy="1327.097" r="25.6"/>
<circle cx="772.111" cy="272.903" r="25.6"/>
<circle cx="502.786" cy="923.110" r="25.6"/>
<circle cx="447.007" cy="407.565" r="25.6"/>
<circle cx="177.682" cy="1057.772" r="25.6"/>
<circle cx="1231.876" cy="732.669" r="25.6"/>
<circle cx="962.552" cy="1382.876" r="25.6"/>
<circle cx="906.773" cy="867.331" r="25.6"/>
<circle cx="637.448" cy="1517.538" r="25.6"/>
<circle cx="962.552" cy="82.462" r="25.6"/>
<circle cx="693.227" cy="732.669" r="25.6"/>
<circle cx="637.448" cy="217.124" r="25.6"/>
<circle cx="368.124" cy="867.331" r="25.6"/>
<circle cx="1327.097" cy="772.111" r="25.6"/>
<circle cx="1057.772" cy="1422.318" r="25.6"/>
<circle cx="676.890" cy="502.786" r="25.6"/>
<circle cx="407.565" cy="1152.993" r="25.6"/>
<circle cx="1192.435" cy="447.007" r="25.6"/>
<circle cx="923.110" cy="1097.214" r="25.6"/>
<circle cx="542.228" cy="177.682" r="25.6"/>
<circle cx="272.903" cy="827.889" r="25.6"/>
<circle cx="1231.876" cy="867.331" r="25.6"/>
<circle cx="962.552" cy="1517.538" r="25.6"/>
<circle cx="906.773" cy="732.669" r="25.6"/>
<circle cx="637.448" cy="1382.876" r="25.6"/>
<circle cx="962.552" cy="217.124" r="25.6"/>
<circle cx="693.227" cy="867.331" r="25.6"/>
<circle cx="637.448" cy="82.462" r="25.6"/>
<circle cx="368.124" cy="732.669" r="25.6"/>
<circle cx="1517.538" cy="637.448" r="25.6"/>
<circle cx="1382.876" cy="962.552" r="25.6"/>
<circle cx="867.331" cy="906.773" r="25.6"/>
<circle cx="732.669" cy="1231.876" r="25.6"/>
<circle cx="867.331" cy="368.124" r="25.6"/>
<circle cx="732.669" cy="693.227" r="25.6"/>
<circle cx="217.124" cy="637.448" r="25.6"/>
<circle cx="82.462" cy="962.552" r="25.6"/>
<circle cx="1327.097" cy="827.889" r="25.6"/>
<circle cx="1192.435" cy="1152.993" r="25.6"/>
<circle cx="676.890" cy="1097.214" r="25.6"/>
<circle cx="542.228" cy="1422.318" r="25.6"/>
<circle cx="1057.772" cy="177.682" r="25.6"/>
<circle cx="923.110" cy="502.786" r="25.6"/>
<circle cx="407.565" cy="447.007" r="25.6"/>
<circle cx="272.903" cy="772.111" r="25.6"/>
<circle cx="1327.097" cy="1097.214" r="25.6"/>
<circle cx="1192.435" cy="1422.318" r="25.6"/>
<circle cx="676.890" cy="827.889" r="25.6"/>
<circle cx="542.228" cy="1152.993" r="25.6"/>
<circle cx="1057.772" cy="447.007" r="25.6"/>
<circle cx="923.110" cy="772.111" r="25.6"/>
<circle cx="407.565" cy="177.682" r="25.6"/>
<circle cx="272.903" cy="502.786" r="25.6"/>
<circle cx="1517.538" cy="962.552" r="25.6"/>
<circle cx="867.331" cy="1231.876" r="25.6"/>
<circle cx="867.331" cy="693.227" r="25.6"/>
<circle cx="217.124" cy="962.552" r="25.6"/>
<circle cx="1382.876" cy="637.448" r="25.6"/>
<circle cx="732.669" cy="906.773" r="25.6"/>
<circle cx="732.669" cy="368.124" r="25.6"/>
<circle cx="82.462" cy="637.448" r="25.6"/>
<circle cx="1422.318" cy="1057.772" r="25.6"/>
<circle cx="772.111" cy="1327.097" r="25.6"/>
<circle cx="1097.214" cy="923.110" r="25.6"/>
<circle cx="447.007" cy="1192.435" r="25.6"/>
<circle cx="1152.993" cy="407.565" r="25.6"/>
<circle cx="502.786" cy="676.890" r="25.6"/>
<circle cx="827.889" cy="272.903" r="25.6"/>
<circle cx="177.682" cy="542.228" r="25.6"/>
<circle cx="1422.318" cy="1192.435" r="25.6"/>
<circle cx="1097.214" cy="1327.097" r="25.6"/>
<circle cx="772.111" cy="923.110" r="25.6"/>
<circle cx="447.007" cy="1057.772" r="25.6"/>
<circle cx="1152.993" cy="542.228" r="25.6"/>
<circle cx="827.889" cy="676.890" r="25.6"/>
<circle cx="502.786" cy="272.903" r="25.6"/>
<circle cx="177.682" cy="407.565" r="25.6"/>
</g>
</svg>