<?xml version="1.0" encoding="UTF-8" standalone="no"?>
<svg xmlns="http://www.w3.org/2000/svg" version="1.0" width="800" height="800" id="8-cube.svg">
<g style="stroke:#000000;stroke-width:2;stroke-opacity:0.5;">
<line x1="779.582" y1="400.000" x2="750.688" y2="545.260"/>
<line x1="697.299" y1="523.145" x2="668.405" y2="668.405"/>
<line x1="779.582" y1="400.000" x2="697.299" y2="523.145"/>
<line x1="750.688" y1="545.260" x2="668.405" y2="668.405"/>
<line x1="656.437" y1="482.283" x2="627.543" y2="627.543"/>
<line x1="574.154" y1="605.428" x2="545.260" y2="750.688"/>
<line x1="656.437" y1="482.283" x2="574.154" y2="605.428"/>
<line x1="627.543" y1="627.543" x2="545.260" y2="750.688"/>
<line x1="779.582" y1="400.000" x2="656.437" y2="482.283"/>
<line x1="750.688" y1="545.260" x2="627.543" y2="627.543"/>
<line x1="697.299" y1="523.145" x2="574.154" y2="605.428"/>
<line x1="668.405" y1="668.405" x2="545.260" y2="750.688"/>
<line x1="634.323" y1="428.894" x2="605.428" y2="574.154"/>
<line x1="552.039" y1="552.039" x2="523.145" y2="697.299"/>
<line x1="634.323" y1="428.894" x2="552.039" y2="552.039"/>
<line x1="605.428" y1="574.154" x2="523.145" y2="697.299"/>
<line x1="511.177" y1="511.177" x2="482.283" y2="656.437"/>
<line x1="428.894" y1="634.323" x2="400.000" y2="779.582"/>
<line x1="511.177" y1="511.177" x2="428.894" y2="634.323"/>
<line x1="482.283" y1="656.437" x2="400.000" y2="779.582"/>
<line x1="634.323" y1="428.894" x2="511.177" y2="511.177"/>
<line x1="605.428" y1="574.154" x2="482.283" y2="656.437"/>
<line x1="552.039" y1="552.039" x2="428.894" y2="634.323"/>
<line x1="523.145" y1="697.299" x2="400.000" y2="779.582"/>
<line x1="779.582" y1="400.000" x2="634.323" y2="428.894"/>
<line x1="750.688" y1="545.260" x2="605.428" y2="574.154"/>
<line x1="697.299" y1="523.145" x2="552.039" y2="552.039"/>
<line x1="668.405" y1="668.405" x2="523.145" y2="697.299"/>
<line x1="656.437" y1="482.283" x2="511.177" y2="511.177"/>
<line x1="627.543" y1="627.543" x2="482.283" y2="656.437"/>
<line x1="574.154" y1="605.428" x2="428.894" y2="634.323"/>
<line x1="545.260" y1="750.688" x2="400.000" y2="779.582"/>
<line x1="634.323" y1="371.106" x2="605.428" y2="516.366"/>
<line x1="552.039" y1="494.251" x2="523.145" y2="639.511"/>
<line x1="634.323" y1="371.106" x2="552.039" y2="494.251"/>
<line x1="605.428" y1="516.366" x2="523.145" y2="639.511"/>
<line x1="511.177" y1="453.389" x2="482.283" y2="598.649"/>
<line x1="428.894" y1="576.534" x2="400.000" y2="721.794"/>
<line x1="511.177" y1="453.389" x2="428.894" y2="576.534"/>
<line x1="482.283" y1="598.649" x2="400.000" y2="721.794"/>
<line x1="634.323" y1="371.106" x2="511.177" y2="453.389"/>
<line x1="605.428" y1="516.366" x2="482.283" y2="598.649"/>
<line x1="552.039" y1="494.251" x2="428.894" y2="576.534"/>
<line x1="523.145" y1="639.511" x2="400.000" y2="721.794"/>
<line x1="489.063" y1="400.000" x2="460.169" y2="545.260"/>
<line x1="406.779" y1="523.145" x2="377.885" y2="668.405"/>
<line x1="489.063" y1="400.000" x2="406.779" y2="523.145"/>
<line x1="460.169" y1="545.260" x2="377.885" y2="668.405"/>
<line x1="365.917" y1="482.283" x2="337.023" y2="627.543"/>
<line x1="283.634" y1="605.428" x2="254.740" y2="750.688"/>
<line x1="365.917" y1="482.283" x2="283.634" y2="605.428"/>
<line x1="337.023" y1="627.543" x2="254.740" y2="750.688"/>
<line x1="489.063" y1="400.000" x2="365.917" y2="482.283"/>
<line x1="460.169" y1="545.260" x2="337.023" y2="627.543"/>
<line x1="406.779" y1="523.145" x2="283.634" y2="605.428"/>
<line x1="377.885" y1="668.405" x2="254.740" y2="750.688"/>
<line x1="634.323" y1="371.106" x2="489.063" y2="400.000"/>
<line x1="605.428" y1="516.366" x2="460.169" y2="545.260"/>
<line x1="552.039" y1="494.251" x2="406.779" y2="523.145"/>
<line x1="523.145" y1="639.511" x2="377.885" y2="668.405"/>
<line x1="511.177" y1="453.389" x2="365.917" y2="482.283"/>
<line x1="482.283" y1="598.649" x2="337.023" y2="627.543"/>
<line x1="428.894" y1="576.534" x2="283.634" y2="605.428"/>
<line x1="400.000" y1="721.794" x2="254.740" y2="750.688"/>
<line x1="779.582" y1="400.000" x2="634.323" y2="371.106"/>
<line x1="750.688" y1="545.260" x2="605.428" y2="516.366"/>
<line x1="697.299" y1="523.145" x2="552.039" y2="494.251"/>
<line x1="668.405" y1="668.405" x2="523.145" y2="639.511"/>
<line x1="656.437" y1="482.283" x2="511.177" y2="453.389"/>
<line x1="627.543" y1="627.543" x2="482.283" y2="598.649"/>
<line x1="574.154" y1="605.428" x2="428.894" y2="576.534"/>
<line x1="545.260" y1="750.688" x2="400.000" y2="721.794"/>
<line x1="634.323" y1="428.894" x2="489.063" y2="400.000"/>
<line x1="605.428" y1="574.154" x2="460.169" y2="545.260"/>
<line x1="552.039" y1="552.039" x2="406.779" y2="523.145"/>
<line x1="523.145" y1="697.299" x2="377.885" y2="668.405"/>
<line x1="511.177" y1="511.177" x2="365.917" y2="482.283"/>
<line x1="482.283" y1="656.437" x2="337.023" y2="627.543"/>
<line x1="428.894" y1="634.323" x2="283.634" y2="605.428"/>
<line x1="400.000" y1="779.582" x2="254.740" y2="750.688"/>
<line x1="656.437" y1="317.717" x2="627.543" y2="462.977"/>
<line x1="574.154" y1="440.862" x2="545.260" y2="586.122"/>
<line x1="656.437" y1="317.717" x2="574.154" y2="440.862"/>
<line x1="627.543" y1="462.977" x2="545.260" y2="586.122"/>
<line x1="533.292" y1="400.000" x2="504.398" y2="545.260"/>
<line x1="451.008" y1="523.145" x2="422.115" y2="668.405"/>
<line x1="533.292" y1="400.000" x2="451.008" y2="523.145"/>
<line x1="504.398" y1="545.260" x2="422.115" y2="668.405"/>
<line x1="656.437" y1="317.717" x2="533.292" y2="400.000"/>
<line x1="627.543" y1="462.977" x2="504.398" y2="545.260"/>
<line x1="574.154" y1="440.862" x2="451.008" y2="523.145"/>
<line x1="545.260" y1="586.122" x2="422.115" y2="668.405"/>
<line x1="511.177" y1="346.611" x2="482.283" y2="491.871"/>
<line x1="428.894" y1="469.756" x2="400.000" y2="615.016"/>
<line x1="511.177" y1="346.611" x2="428.894" y2="469.756"/>
<line x1="482.283" y1="491.871" x2="400.000" y2="615.016"/>
<line x1="388.032" y1="428.894" x2="359.138" y2="574.154"/>
<line x1="305.749" y1="552.039" x2="276.855" y2="697.299"/>
<line x1="388.032" y1="428.894" x2="305.749" y2="552.039"/>
<line x1="359.138" y1="574.154" x2="276.855" y2="697.299"/>
<line x1="511.177" y1="346.611" x2="388.032" y2="428.894"/>
<line x1="482.283" y1="491.871" x2="359.138" y2="574.154"/>
<line x1="428.894" y1="469.756" x2="305.749" y2="552.039"/>
<line x1="400.000" y1="615.016" x2="276.855" y2="697.299"/>
<line x1="656.437" y1="317.717" x2="511.177" y2="346.611"/>
<line x1="627.543" y1="462.977" x2="482.283" y2="491.871"/>
<line x1="574.154" y1="440.862" x2="428.894" y2="469.756"/>
<line x1="545.260" y1="586.122" x2="400.000" y2="615.016"/>
<line x1="533.292" y1="400.000" x2="388.032" y2="428.894"/>
<line x1="504.398" y1="545.260" x2="359.138" y2="574.154"/>
<line x1="451.008" y1="523.145" x2="305.749" y2="552.039"/>
<line x1="422.115" y1="668.405" x2="276.855" y2="697.299"/>
<line x1="511.177" y1="288.823" x2="482.283" y2="434.083"/>
<line x1="428.894" y1="411.968" x2="400.000" y2="557.228"/>
<line x1="511.177" y1="288.823" x2="428.894" y2="411.968"/>
<line x1="482.283" y1="434.083" x2="400.000" y2="557.228"/>
<line x1="388.032" y1="371.106" x2="359.138" y2="516.366"/>
<line x1="305.749" y1="494.251" x2="276.855" y2="639.511"/>
<line x1="388.032" y1="371.106" x2="305.749" y2="494.251"/>
<line x1="359.138" y1="516.366" x2="276.855" y2="639.511"/>
<line x1="511.177" y1="288.823" x2="388.032" y2="371.106"/>
<line x1="482.283" y1="434.083" x2="359.138" y2="516.366"/>
<line x1="428.894" y1="411.968" x2="305.749" y2="494.251"/>
<line x1="400.000" y1="557.228" x2="276.855" y2="639.511"/>
<line x1="365.917" y1="317.717" x2="337.023" y2="462.977"/>
<line x1="283.634" y1="440.862" x2="254.740" y2="586.122"/>
<line x1="365.917" y1="317.717" x2="283.634" y2="440.862"/>
<line x1="337.023" y1="462.977" x2="254.740" y2="586.122"/>
<line x1="242.772" y1="400.000" x2="213.878" y2="545.260"/>
<line x1="160.489" y1="523.145" x2="131.595" y2="668.405"/>
<line x1="242.772" y1="400.000" x2="160.489" y2="523.145"/>
<line x1="213.878" y1="545.260" x2="131.595" y2="668.405"/>
<line x1="365.917" y1="317.717" x2="242.772" y2="400.000"/>
<line x1="337.023" y1="462.977" x2="213.878" y2="545.260"/>
<line x1="283.634" y1="440.862" x2="160.489" y2="523.145"/>
<line x1="254.740" y1="586.122" x2="131.595" y2="668.405"/>
<line x1="511.177" y1="288.823" x2="365.917" y2="317.717"/>
<line x1="482.283" y1="434.083" x2="337.023" y2="462.977"/>
<line x1="428.894" y1="411.968" x2="283.634" y2="440.862"/>
<line x1="400.000" y1="557.228" x2="254.740" y2="586.122"/>
<line x1="388.032" y1="371.106" x2="242.772" y2="400.000"/>
<line x1="359.138" y1="516.366" x2="213.878" y2="545.260"/>
<line x1="305.749" y1="494.251" x2="160.489" y2="523.145"/>
<line x1="276.855" y1="639.511" x2="131.595" y2="668.405"/>
<line x1="656.437" y1="317.717" x2="511.177" y2="288.823"/>
<line x1="627.543" y1="462.977" x2="482.283" y2="434.083"/>
<line x1="574.154" y1="440.862" x2="428.894" y2="411.968"/>
<line x1="545.260" y1="586.122" x2="400.000" y2="557.228"/>
<line x1="533.292" y1="400.000" x2="388.032" y2="371.106"/>
<line x1="504.398" y1="545.260" x2="359.138" y2="516.366"/>
<line x1="451.008" y1="523.145" x2="305.749" y2="494.251"/>
<line x1="422.115" y1="668.405" x2="276.855" y2="639.511"/>
<line x1="511.177" y1="346.611" x2="365.917" y2="317.717"/>
<line x1="482.283" y1="491.871" x2="337.023" y2="462.977"/>
<line x1="428.894" y1="469.756" x2="283.634" y2="440.862"/>
<line x1="400.000" y1="615.016" x2="254.740" y2="586.122"/>
<line x1="388.032" y1="428.894" x2="242.772" y2="400.000"/>
<line x1="359.138" y1="574.154" x2="213.878" y2="545.260"/>
<line x1="305.749" y1="552.039" x2="160.489" y2="523.145"/>
<line x1="276.855" y1="697.299" x2="131.595" y2="668.405"/>
<line x1="779.582" y1="400.000" x2="656.437" y2="317.717"/>
<line x1="750.688" y1="545.260" x2="627.543" y2="462.977"/>
<line x1="697.299" y1="523.145" x2="574.154" y2="440.862"/>
<line x1="668.405" y1="668.405" x2="545.260" y2="586.122"/>
<line x1="656.437" y1="482.283" x2="533.292" y2="400.000"/>
<line x1="627.543" y1="627.543" x2="504.398" y2="545.260"/>
<line x1="574.154" y1="605.428" x2="451.008" y2="523.145"/>
<line x1="545.260" y1="750.688" x2="422.115" y2="668.405"/>
<line x1="634.323" y1="428.894" x2="511.177" y2="346.611"/>
<line x1="605.428" y1="574.154" x2="482.283" y2="491.871"/>
<line x1="552.039" y1="552.039" x2="428.894" y2="469.756"/>
<line x1="523.145" y1="697.299" x2="400.000" y2="615.016"/>
<line x1="511.177" y1="511.177" x2="388.032" y2="428.894"/>
<line x1="482.283" y1="656.437" x2="359.138" y2="574.154"/>
<line x1="428.894" y1="634.323" x2="305.749" y2="552.039"/>
<line x1="400.000" y1="779.582" x2="276.855" y2="697.299"/>
<line x1="634.323" y1="371.106" x2="511.177" y2="288.823"/>
<line x1="605.428" y1="516.366" x2="482.283" y2="434.083"/>
<line x1="552.039" y1="494.251" x2="428.894" y2="411.968"/>
<line x1="523.145" y1="639.511" x2="400.000" y2="557.228"/>
<line x1="511.177" y1="453.389" x2="388.032" y2="371.106"/>
<line x1="482.283" y1="598.649" x2="359.138" y2="516.366"/>
<line x1="428.894" y1="576.534" x2="305.749" y2="494.251"/>
<line x1="400.000" y1="721.794" x2="276.855" y2="639.511"/>
<line x1="489.063" y1="400.000" x2="365.917" y2="317.717"/>
<line x1="460.169" y1="545.260" x2="337.023" y2="462.977"/>
<line x1="406.779" y1="523.145" x2="283.634" y2="440.862"/>
<line x1="377.885" y1="668.405" x2="254.740" y2="586.122"/>
<line x1="365.917" y1="482.283" x2="242.772" y2="400.000"/>
<line x1="337.023" y1="627.543" x2="213.878" y2="545.260"/>
<line x1="283.634" y1="605.428" x2="160.489" y2="523.145"/>
<line x1="254.740" y1="750.688" x2="131.595" y2="668.405"/>
<line x1="697.299" y1="276.855" x2="668.405" y2="422.115"/>
<line x1="615.016" y1="400.000" x2="586.122" y2="545.260"/>
<line x1="697.299" y1="276.855" x2="615.016" y2="400.000"/>
<line x1="668.405" y1="422.115" x2="586.122" y2="545.260"/>
<line x1="574.154" y1="359.138" x2="545.260" y2="504.398"/>
<line x1="491.871" y1="482.283" x2="462.977" y2="627.543"/>
<line x1="574.154" y1="359.138" x2="491.871" y2="482.283"/>
<line x1="545.260" y1="504.398" x2="462.977" y2="627.543"/>
<line x1="697.299" y1="276.855" x2="574.154" y2="359.138"/>
<line x1="668.405" y1="422.115" x2="545.260" y2="504.398"/>
<line x1="615.016" y1="400.000" x2="491.871" y2="482.283"/>
<line x1="586.122" y1="545.260" x2="462.977" y2="627.543"/>
<line x1="552.039" y1="305.749" x2="523.145" y2="451.008"/>
<line x1="469.756" y1="428.894" x2="440.862" y2="574.154"/>
<line x1="552.039" y1="305.749" x2="469.756" y2="428.894"/>
<line x1="523.145" y1="451.008" x2="440.862" y2="574.154"/>
<line x1="428.894" y1="388.032" x2="400.000" y2="533.292"/>
<line x1="346.611" y1="511.177" x2="317.717" y2="656.437"/>
<line x1="428.894" y1="388.032" x2="346.611" y2="511.177"/>
<line x1="400.000" y1="533.292" x2="317.717" y2="656.437"/>
<line x1="552.039" y1="305.749" x2="428.894" y2="388.032"/>
<line x1="523.145" y1="451.008" x2="400.000" y2="533.292"/>
<line x1="469.756" y1="428.894" x2="346.611" y2="511.177"/>
<line x1="440.862" y1="574.154" x2="317.717" y2="656.437"/>
<line x1="697.299" y1="276.855" x2="552.039" y2="305.749"/>
<line x1="668.405" y1="422.115" x2="523.145" y2="451.008"/>
<line x1="615.016" y1="400.000" x2="469.756" y2="428.894"/>
<line x1="586.122" y1="545.260" x2="440.862" y2="574.154"/>
<line x1="574.154" y1="359.138" x2="428.894" y2="388.032"/>
<line x1="545.260" y1="504.398" x2="400.000" y2="533.292"/>
<line x1="491.871" y1="482.283" x2="346.611" y2="511.177"/>
<line x1="462.977" y1="627.543" x2="317.717" y2="656.437"/>
<line x1="552.039" y1="247.961" x2="523.145" y2="393.221"/>
<line x1="469.756" y1="371.106" x2="440.862" y2="516.366"/>
<line x1="552.039" y1="247.961" x2="469.756" y2="371.106"/>
<line x1="523.145" y1="393.221" x2="440.862" y2="516.366"/>
<line x1="428.894" y1="330.244" x2="400.000" y2="475.504"/>
<line x1="346.611" y1="453.389" x2="317.717" y2="598.649"/>
<line x1="428.894" y1="330.244" x2="346.611" y2="453.389"/>
<line x1="400.000" y1="475.504" x2="317.717" y2="598.649"/>
<line x1="552.039" y1="247.961" x2="428.894" y2="330.244"/>
<line x1="523.145" y1="393.221" x2="400.000" y2="475.504"/>
<line x1="469.756" y1="371.106" x2="346.611" y2="453.389"/>
<line x1="440.862" y1="516.366" x2="317.717" y2="598.649"/>
<line x1="406.779" y1="276.855" x2="377.885" y2="422.115"/>
<line x1="324.496" y1="400.000" x2="295.602" y2="545.260"/>
<line x1="406.779" y1="276.855" x2="324.496" y2="400.000"/>
<line x1="377.885" y1="422.115" x2="295.602" y2="545.260"/>
<line x1="283.634" y1="359.138" x2="254.740" y2="504.398"/>
<line x1="201.351" y1="482.283" x2="172.457" y2="627.543"/>
<line x1="283.634" y1="359.138" x2="201.351" y2="482.283"/>
<line x1="254.740" y1="504.398" x2="172.457" y2="627.543"/>
<line x1="406.779" y1="276.855" x2="283.634" y2="359.138"/>
<line x1="377.885" y1="422.115" x2="254.740" y2="504.398"/>
<line x1="324.496" y1="400.000" x2="201.351" y2="482.283"/>
<line x1="295.602" y1="545.260" x2="172.457" y2="627.543"/>
<line x1="552.039" y1="247.961" x2="406.779" y2="276.855"/>
<line x1="523.145" y1="393.221" x2="377.885" y2="422.115"/>
<line x1="469.756" y1="371.106" x2="324.496" y2="400.000"/>
<line x1="440.862" y1="516.366" x2="295.602" y2="545.260"/>
<line x1="428.894" y1="330.244" x2="283.634" y2="359.138"/>
<line x1="400.000" y1="475.504" x2="254.740" y2="504.398"/>
<line x1="346.611" y1="453.389" x2="201.351" y2="482.283"/>
<line x1="317.717" y1="598.649" x2="172.457" y2="627.543"/>
<line x1="697.299" y1="276.855" x2="552.039" y2="247.961"/>
<line x1="668.405" y1="422.115" x2="523.145" y2="393.221"/>
<line x1="615.016" y1="400.000" x2="469.756" y2="371.106"/>
<line x1="586.122" y1="545.260" x2="440.862" y2="516.366"/>
<line x1="574.154" y1="359.138" x2="428.894" y2="330.244"/>
<line x1="545.260" y1="504.398" x2="400.000" y2="475.504"/>
<line x1="491.871" y1="482.283" x2="346.611" y2="453.389"/>
<line x1="462.977" y1="627.543" x2="317.717" y2="598.649"/>
<line x1="552.039" y1="305.749" x2="406.779" y2="276.855"/>
<line x1="523.145" y1="451.008" x2="377.885" y2="422.115"/>
<line x1="469.756" y1="428.894" x2="324.496" y2="400.000"/>
<line x1="440.862" y1="574.154" x2="295.602" y2="545.260"/>
<line x1="428.894" y1="388.032" x2="283.634" y2="359.138"/>
<line x1="400.000" y1="533.292" x2="254.740" y2="504.398"/>
<line x1="346.611" y1="511.177" x2="201.351" y2="482.283"/>
<line x1="317.717" y1="656.437" x2="172.457" y2="627.543"/>
<line x1="574.154" y1="194.572" x2="545.260" y2="339.831"/>
<line x1="491.871" y1="317.717" x2="462.977" y2="462.977"/>
<line x1="574.154" y1="194.572" x2="491.871" y2="317.717"/>
<line x1="545.260" y1="339.831" x2="462.977" y2="462.977"/>
<line x1="451.008" y1="276.855" x2="422.115" y2="422.115"/>
<line x1="368.725" y1="400.000" x2="339.831" y2="545.260"/>
<line x1="451.008" y1="276.855" x2="368.725" y2="400.000"/>
<line x1="422.115" y1="422.115" x2="339.831" y2="545.260"/>
<line x1="574.154" y1="194.572" x2="451.008" y2="276.855"/>
<line x1="545.260" y1="339.831" x2="422.115" y2="422.115"/>
<line x1="491.871" y1="317.717" x2="368.725" y2="400.000"/>
<line x1="462.977" y1="462.977" x2="339.831" y2="545.260"/>
<line x1="428.894" y1="223.465" x2="400.000" y2="368.725"/>
<line x1="346.611" y1="346.611" x2="317.717" y2="491.871"/>
<line x1="428.894" y1="223.465" x2="346.611" y2="346.611"/>
<line x1="400.000" y1="368.725" x2="317.717" y2="491.871"/>
<line x1="305.749" y1="305.749" x2="276.855" y2="451.008"/>
<line x1="223.465" y1="428.894" x2="194.572" y2="574.154"/>
<line x1="305.749" y1="305.749" x2="223.465" y2="428.894"/>
<line x1="276.855" y1="451.008" x2="194.572" y2="574.154"/>
<line x1="428.894" y1="223.465" x2="305.749" y2="305.749"/>
<line x1="400.000" y1="368.725" x2="276.855" y2="451.008"/>
<line x1="346.611" y1="346.611" x2="223.465" y2="428.894"/>
<line x1="317.717" y1="491.871" x2="194.572" y2="574.154"/>
<line x1="574.154" y1="194.572" x2="428.894" y2="223.465"/>
<line x1="545.260" y1="339.831" x2="400.000" y2="368.725"/>
<line x1="491.871" y1="317.717" x2="346.611" y2="346.611"/>
<line x1="462.977" y1="462.977" x2="317.717" y2="491.871"/>
<line x1="451.008" y1="276.855" x2="305.749" y2="305.749"/>
<line x1="422.115" y1="422.115" x2="276.855" y2="451.008"/>
<line x1="368.725" y1="400.000" x2="223.465" y2="428.894"/>
<line x1="339.831" y1="545.260" x2="194.572" y2="574.154"/>
<line x1="428.894" y1="165.678" x2="400.000" y2="310.937"/>
<line x1="346.611" y1="288.823" x2="317.717" y2="434.083"/>
<line x1="428.894" y1="165.678" x2="346.611" y2="288.823"/>
<line x1="400.000" y1="310.937" x2="317.717" y2="434.083"/>
<line x1="305.749" y1="247.961" x2="276.855" y2="393.221"/>
<line x1="223.465" y1="371.106" x2="194.572" y2="516.366"/>
<line x1="305.749" y1="247.961" x2="223.465" y2="371.106"/>
<line x1="276.855" y1="393.221" x2="194.572" y2="516.366"/>
<line x1="428.894" y1="165.678" x2="305.749" y2="247.961"/>
<line x1="400.000" y1="310.937" x2="276.855" y2="393.221"/>
<line x1="346.611" y1="288.823" x2="223.465" y2="371.106"/>
<line x1="317.717" y1="434.083" x2="194.572" y2="516.366"/>
<line x1="283.634" y1="194.572" x2="254.740" y2="339.831"/>
<line x1="201.351" y1="317.717" x2="172.457" y2="462.977"/>
<line x1="283.634" y1="194.572" x2="201.351" y2="317.717"/>
<line x1="254.740" y1="339.831" x2="172.457" y2="462.977"/>
<line x1="160.489" y1="276.855" x2="131.595" y2="422.115"/>
<line x1="78.206" y1="400.000" x2="49.312" y2="545.260"/>
<line x1="160.489" y1="276.855" x2="78.206" y2="400.000"/>
<line x1="131.595" y1="422.115" x2="49.312" y2="545.260"/>
<line x1="283.634" y1="194.572" x2="160.489" y2="276.855"/>
<line x1="254.740" y1="339.831" x2="131.595" y2="422.115"/>
<line x1="201.351" y1="317.717" x2="78.206" y2="400.000"/>
<line x1="172.457" y1="462.977" x2="49.312" y2="545.260"/>
<line x1="428.894" y1="165.678" x2="283.634" y2="194.572"/>
<line x1="400.000" y1="310.937" x2="254.740" y2="339.831"/>
<line x1="346.611" y1="288.823" x2="201.351" y2="317.717"/>
<line x1="317.717" y1="434.083" x2="172.457" y2="462.977"/>
<line x1="305.749" y1="247.961" x2="160.489" y2="276.855"/>
<line x1="276.855" y1="393.221" x2="131.595" y2="422.115"/>
<line x1="223.465" y1="371.106" x2="78.206" y2="400.000"/>
<line x1="194.572" y1="516.366" x2="49.312" y2="545.260"/>
<line x1="574.154" y1="194.572" x2="428.894" y2="165.678"/>
<line x1="545.260" y1="339.831" x2="400.000" y2="310.937"/>
<line x1="491.871" y1="317.717" x2="346.611" y2="288.823"/>
<line x1="462.977" y1="462.977" x2="317.717" y2="434.083"/>
<line x1="451.008" y1="276.855" x2="305.749" y2="247.961"/>
<line x1="422.115" y1="422.115" x2="276.855" y2="393.221"/>
<line x1="368.725" y1="400.000" x2="223.465" y2="371.106"/>
<line x1="339.831" y1="545.260" x2="194.572" y2="516.366"/>
<line x1="428.894" y1="223.465" x2="283.634" y2="194.572"/>
<line x1="400.000" y1="368.725" x2="254.740" y2="339.831"/>
<line x1="346.611" y1="346.611" x2="201.351" y2="317.717"/>
<line x1="317.717" y1="491.871" x2="172.457" y2="462.977"/>
<line x1="305.749" y1="305.749" x2="160.489" y2="276.855"/>
<line x1="276.855" y1="451.008" x2="131.595" y2="422.115"/>
<line x1="223.465" y1="428.894" x2="78.206" y2="400.000"/>
<line x1="194.572" y1="574.154" x2="49.312" y2="545.260"/>
<line x1="697.299" y1="276.855" x2="574.154" y2="194.572"/>
<line x1="668.405" y1="422.115" x2="545.260" y2="339.831"/>
<line x1="615.016" y1="400.000" x2="491.871" y2="317.717"/>
<line x1="586.122" y1="545.260" x2="462.977" y2="462.977"/>
<line x1="574.154" y1="359.138" x2="451.008" y2="276.855"/>
<line x1="545.260" y1="504.398" x2="422.115" y2="422.115"/>
<line x1="491.871" y1="482.283" x2="368.725" y2="400.000"/>
<line x1="462.977" y1="627.543" x2="339.831" y2="545.260"/>
<line x1="552.039" y1="305.749" x2="428.894" y2="223.465"/>
<line x1="523.145" y1="451.008" x2="400.000" y2="368.725"/>
<line x1="469.756" y1="428.894" x2="346.611" y2="346.611"/>
<line x1="440.862" y1="574.154" x2="317.717" y2="491.871"/>
<line x1="428.894" y1="388.032" x2="305.749" y2="305.749"/>
<line x1="400.000" y1="533.292" x2="276.855" y2="451.008"/>
<line x1="346.611" y1="511.177" x2="223.465" y2="428.894"/>
<line x1="317.717" y1="656.437" x2="194.572" y2="574.154"/>
<line x1="552.039" y1="247.961" x2="428.894" y2="165.678"/>
<line x1="523.145" y1="393.221" x2="400.000" y2="310.937"/>
<line x1="469.756" y1="371.106" x2="346.611" y2="288.823"/>
<line x1="440.862" y1="516.366" x2="317.717" y2="434.083"/>
<line x1="428.894" y1="330.244" x2="305.749" y2="247.961"/>
<line x1="400.000" y1="475.504" x2="276.855" y2="393.221"/>
<line x1="346.611" y1="453.389" x2="223.465" y2="371.106"/>
<line x1="317.717" y1="598.649" x2="194.572" y2="516.366"/>
<line x1="406.779" y1="276.855" x2="283.634" y2="194.572"/>
<line x1="377.885" y1="422.115" x2="254.740" y2="339.831"/>
<line x1="324.496" y1="400.000" x2="201.351" y2="317.717"/>
<line x1="295.602" y1="545.260" x2="172.457" y2="462.977"/>
<line x1="283.634" y1="359.138" x2="160.489" y2="276.855"/>
<line x1="254.740" y1="504.398" x2="131.595" y2="422.115"/>
<line x1="201.351" y1="482.283" x2="78.206" y2="400.000"/>
<line x1="172.457" y1="627.543" x2="49.312" y2="545.260"/>
<line x1="779.582" y1="400.000" x2="697.299" y2="276.855"/>
<line x1="750.688" y1="545.260" x2="668.405" y2="422.115"/>
<line x1="697.299" y1="523.145" x2="615.016" y2="400.000"/>
<line x1="668.405" y1="668.405" x2="586.122" y2="545.260"/>
<line x1="656.437" y1="482.283" x2="574.154" y2="359.138"/>
<line x1="627.543" y1="627.543" x2="545.260" y2="504.398"/>
<line x1="574.154" y1="605.428" x2="491.871" y2="482.283"/>
<line x1="545.260" y1="750.688" x2="462.977" y2="627.543"/>
<line x1="634.323" y1="428.894" x2="552.039" y2="305.749"/>
<line x1="605.428" y1="574.154" x2="523.145" y2="451.008"/>
<line x1="552.039" y1="552.039" x2="469.756" y2="428.894"/>
<line x1="523.145" y1="697.299" x2="440.862" y2="574.154"/>
<line x1="511.177" y1="511.177" x2="428.894" y2="388.032"/>
<line x1="482.283" y1="656.437" x2="400.000" y2="533.292"/>
<line x1="428.894" y1="634.323" x2="346.611" y2="511.177"/>
<line x1="400.000" y1="779.582" x2="317.717" y2="656.437"/>
<line x1="634.323" y1="371.106" x2="552.039" y2="247.961"/>
<line x1="605.428" y1="516.366" x2="523.145" y2="393.221"/>
<line x1="552.039" y1="494.251" x2="469.756" y2="371.106"/>
<line x1="523.145" y1="639.511" x2="440.862" y2="516.366"/>
<line x1="511.177" y1="453.389" x2="428.894" y2="330.244"/>
<line x1="482.283" y1="598.649" x2="400.000" y2="475.504"/>
<line x1="428.894" y1="576.534" x2="346.611" y2="453.389"/>
<line x1="400.000" y1="721.794" x2="317.717" y2="598.649"/>
<line x1="489.063" y1="400.000" x2="406.779" y2="276.855"/>
<line x1="460.169" y1="545.260" x2="377.885" y2="422.115"/>
<line x1="406.779" y1="523.145" x2="324.496" y2="400.000"/>
<line x1="377.885" y1="668.405" x2="295.602" y2="545.260"/>
<line x1="365.917" y1="482.283" x2="283.634" y2="359.138"/>
<line x1="337.023" y1="627.543" x2="254.740" y2="504.398"/>
<line x1="283.634" y1="605.428" x2="201.351" y2="482.283"/>
<line x1="254.740" y1="750.688" x2="172.457" y2="627.543"/>
<line x1="656.437" y1="317.717" x2="574.154" y2="194.572"/>
<line x1="627.543" y1="462.977" x2="545.260" y2="339.831"/>
<line x1="574.154" y1="440.862" x2="491.871" y2="317.717"/>
<line x1="545.260" y1="586.122" x2="462.977" y2="462.977"/>
<line x1="533.292" y1="400.000" x2="451.008" y2="276.855"/>
<line x1="504.398" y1="545.260" x2="422.115" y2="422.115"/>
<line x1="451.008" y1="523.145" x2="368.725" y2="400.000"/>
<line x1="422.115" y1="668.405" x2="339.831" y2="545.260"/>
<line x1="511.177" y1="346.611" x2="428.894" y2="223.465"/>
<line x1="482.283" y1="491.871" x2="400.000" y2="368.725"/>
<line x1="428.894" y1="469.756" x2="346.611" y2="346.611"/>
<line x1="400.000" y1="615.016" x2="317.717" y2="491.871"/>
<line x1="388.032" y1="428.894" x2="305.749" y2="305.749"/>
<line x1="359.138" y1="574.154" x2="276.855" y2="451.008"/>
<line x1="305.749" y1="552.039" x2="223.465" y2="428.894"/>
<line x1="276.855" y1="697.299" x2="194.572" y2="574.154"/>
<line x1="511.177" y1="288.823" x2="428.894" y2="165.678"/>
<line x1="482.283" y1="434.083" x2="400.000" y2="310.937"/>
<line x1="428.894" y1="411.968" x2="346.611" y2="288.823"/>
<line x1="400.000" y1="557.228" x2="317.717" y2="434.083"/>
<line x1="388.032" y1="371.106" x2="305.749" y2="247.961"/>
<line x1="359.138" y1="516.366" x2="276.855" y2="393.221"/>
<line x1="305.749" y1="494.251" x2="223.465" y2="371.106"/>
<line x1="276.855" y1="639.511" x2="194.572" y2="516.366"/>
<line x1="365.917" y1="317.717" x2="283.634" y2="194.572"/>
<line x1="337.023" y1="462.977" x2="254.740" y2="339.831"/>
<line x1="283.634" y1="440.862" x2="201.351" y2="317.717"/>
<line x1="254.740" y1="586.122" x2="172.457" y2="462.977"/>
<line x1="242.772" y1="400.000" x2="160.489" y2="276.855"/>
<line x1="213.878" y1="545.260" x2="131.595" y2="422.115"/>
<line x1="160.489" y1="523.145" x2="78.206" y2="400.000"/>
<line x1="131.595" y1="668.405" x2="49.312" y2="545.260"/>
<line x1="750.688" y1="254.740" x2="721.794" y2="400.000"/>
<line x1="668.405" y1="377.885" x2="639.511" y2="523.145"/>
<line x1="750.688" y1="254.740" x2="668.405" y2="377.885"/>
<line x1="721.794" y1="400.000" x2="639.511" y2="523.145"/>
<line x1="627.543" y1="337.023" x2="598.649" y2="482.283"/>
<line x1="545.260" y1="460.169" x2="516.366" y2="605.428"/>
<line x1="627.543" y1="337.023" x2="545.260" y2="460.169"/>
<line x1="598.649" y1="482.283" x2="516.366" y2="605.428"/>
<line x1="750.688" y1="254.740" x2="627.543" y2="337.023"/>
<line x1="721.794" y1="400.000" x2="598.649" y2="482.283"/>
<line x1="668.405" y1="377.885" x2="545.260" y2="460.169"/>
<line x1="639.511" y1="523.145" x2="516.366" y2="605.428"/>
<line x1="605.428" y1="283.634" x2="576.534" y2="428.894"/>
<line x1="523.145" y1="406.779" x2="494.251" y2="552.039"/>
<line x1="605.428" y1="283.634" x2="523.145" y2="406.779"/>
<line x1="576.534" y1="428.894" x2="494.251" y2="552.039"/>
<line x1="482.283" y1="365.917" x2="453.389" y2="511.177"/>
<line x1="400.000" y1="489.063" x2="371.106" y2="634.323"/>
<line x1="482.283" y1="365.917" x2="400.000" y2="489.063"/>
<line x1="453.389" y1="511.177" x2="371.106" y2="634.323"/>
<line x1="605.428" y1="283.634" x2="482.283" y2="365.917"/>
<line x1="576.534" y1="428.894" x2="453.389" y2="511.177"/>
<line x1="523.145" y1="406.779" x2="400.000" y2="489.063"/>
<line x1="494.251" y1="552.039" x2="371.106" y2="634.323"/>
<line x1="750.688" y1="254.740" x2="605.428" y2="283.634"/>
<line x1="721.794" y1="400.000" x2="576.534" y2="428.894"/>
<line x1="668.405" y1="377.885" x2="523.145" y2="406.779"/>
<line x1="639.511" y1="523.145" x2="494.251" y2="552.039"/>
<line x1="627.543" y1="337.023" x2="482.283" y2="365.917"/>
<line x1="598.649" y1="482.283" x2="453.389" y2="511.177"/>
<line x1="545.260" y1="460.169" x2="400.000" y2="489.063"/>
<line x1="516.366" y1="605.428" x2="371.106" y2="634.323"/>
<line x1="605.428" y1="225.846" x2="576.534" y2="371.106"/>
<line x1="523.145" y1="348.992" x2="494.251" y2="494.251"/>
<line x1="605.428" y1="225.846" x2="523.145" y2="348.992"/>
<line x1="576.534" y1="371.106" x2="494.251" y2="494.251"/>
<line x1="482.283" y1="308.129" x2="453.389" y2="453.389"/>
<line x1="400.000" y1="431.275" x2="371.106" y2="576.534"/>
<line x1="482.283" y1="308.129" x2="400.000" y2="431.275"/>
<line x1="453.389" y1="453.389" x2="371.106" y2="576.534"/>
<line x1="605.428" y1="225.846" x2="482.283" y2="308.129"/>
<line x1="576.534" y1="371.106" x2="453.389" y2="453.389"/>
<line x1="523.145" y1="348.992" x2="400.000" y2="431.275"/>
<line x1="494.251" y1="494.251" x2="371.106" y2="576.534"/>
<line x1="460.169" y1="254.740" x2="431.275" y2="400.000"/>
<line x1="377.885" y1="377.885" x2="348.992" y2="523.145"/>
<line x1="460.169" y1="254.740" x2="377.885" y2="377.885"/>
<line x1="431.275" y1="400.000" x2="348.992" y2="523.145"/>
<line x1="337.023" y1="337.023" x2="308.129" y2="482.283"/>
<line x1="254.740" y1="460.169" x2="225.846" y2="605.428"/>
<line x1="337.023" y1="337.023" x2="254.740" y2="460.169"/>
<line x1="308.129" y1="482.283" x2="225.846" y2="605.428"/>
<line x1="460.169" y1="254.740" x2="337.023" y2="337.023"/>
<line x1="431.275" y1="400.000" x2="308.129" y2="482.283"/>
<line x1="377.885" y1="377.885" x2="254.740" y2="460.169"/>
<line x1="348.992" y1="523.145" x2="225.846" y2="605.428"/>
<line x1="605.428" y1="225.846" x2="460.169" y2="254.740"/>
<line x1="576.534" y1="371.106" x2="431.275" y2="400.000"/>
<line x1="523.145" y1="348.992" x2="377.885" y2="377.885"/>
<line x1="494.251" y1="494.251" x2="348.992" y2="523.145"/>
<line x1="482.283" y1="308.129" x2="337.023" y2="337.023"/>
<line x1="453.389" y1="453.389" x2="308.129" y2="482.283"/>
<line x1="400.000" y1="431.275" x2="254.740" y2="460.169"/>
<line x1="371.106" y1="576.534" x2="225.846" y2="605.428"/>
<line x1="750.688" y1="254.740" x2="605.428" y2="225.846"/>
<line x1="721.794" y1="400.000" x2="576.534" y2="371.106"/>
<line x1="668.405" y1="377.885" x2="523.145" y2="348.992"/>
<line x1="639.511" y1="523.145" x2="494.251" y2="494.251"/>
<line x1="627.543" y1="337.023" x2="482.283" y2="308.129"/>
<line x1="598.649" y1="482.283" x2="453.389" y2="453.389"/>
<line x1="545.260" y1="460.169" x2="400.000" y2="431.275"/>
<line x1="516.366" y1="605.428" x2="371.106" y2="576.534"/>
<line x1="605.428" y1="283.634" x2="460.169" y2="254.740"/>
<line x1="576.534" y1="428.894" x2="431.275" y2="400.000"/>
<line x1="523.145" y1="406.779" x2="377.885" y2="377.885"/>
<line x1="494.251" y1="552.039" x2="348.992" y2="523.145"/>
<line x1="482.283" y1="365.917" x2="337.023" y2="337.023"/>
<line x1="453.389" y1="511.177" x2="308.129" y2="482.283"/>
<line x1="400.000" y1="489.063" x2="254.740" y2="460.169"/>
<line x1="371.106" y1="634.323" x2="225.846" y2="605.428"/>
<line x1="627.543" y1="172.457" x2="598.649" y2="317.717"/>
<line x1="545.260" y1="295.602" x2="516.366" y2="440.862"/>
<line x1="627.543" y1="172.457" x2="545.260" y2="295.602"/>
<line x1="598.649" y1="317.717" x2="516.366" y2="440.862"/>
<line x1="504.398" y1="254.740" x2="475.504" y2="400.000"/>
<line x1="422.115" y1="377.885" x2="393.221" y2="523.145"/>
<line x1="504.398" y1="254.740" x2="422.115" y2="377.885"/>
<line x1="475.504" y1="400.000" x2="393.221" y2="523.145"/>
<line x1="627.543" y1="172.457" x2="504.398" y2="254.740"/>
<line x1="598.649" y1="317.717" x2="475.504" y2="400.000"/>
<line x1="545.260" y1="295.602" x2="422.115" y2="377.885"/>
<line x1="516.366" y1="440.862" x2="393.221" y2="523.145"/>
<line x1="482.283" y1="201.351" x2="453.389" y2="346.611"/>
<line x1="400.000" y1="324.496" x2="371.106" y2="469.756"/>
<line x1="482.283" y1="201.351" x2="400.000" y2="324.496"/>
<line x1="453.389" y1="346.611" x2="371.106" y2="469.756"/>
<line x1="359.138" y1="283.634" x2="330.244" y2="428.894"/>
<line x1="276.855" y1="406.779" x2="247.961" y2="552.039"/>
<line x1="359.138" y1="283.634" x2="276.855" y2="406.779"/>
<line x1="330.244" y1="428.894" x2="247.961" y2="552.039"/>
<line x1="482.283" y1="201.351" x2="359.138" y2="283.634"/>
<line x1="453.389" y1="346.611" x2="330.244" y2="428.894"/>
<line x1="400.000" y1="324.496" x2="276.855" y2="406.779"/>
<line x1="371.106" y1="469.756" x2="247.961" y2="552.039"/>
<line x1="627.543" y1="172.457" x2="482.283" y2="201.351"/>
<line x1="598.649" y1="317.717" x2="453.389" y2="346.611"/>
<line x1="545.260" y1="295.602" x2="400.000" y2="324.496"/>
<line x1="516.366" y1="440.862" x2="371.106" y2="469.756"/>
<line x1="504.398" y1="254.740" x2="359.138" y2="283.634"/>
<line x1="475.504" y1="400.000" x2="330.244" y2="428.894"/>
<line x1="422.115" y1="377.885" x2="276.855" y2="406.779"/>
<line x1="393.221" y1="523.145" x2="247.961" y2="552.039"/>
<line x1="482.283" y1="143.563" x2="453.389" y2="288.823"/>
<line x1="400.000" y1="266.708" x2="371.106" y2="411.968"/>
<line x1="482.283" y1="143.563" x2="400.000" y2="266.708"/>
<line x1="453.389" y1="288.823" x2="371.106" y2="411.968"/>
<line x1="359.138" y1="225.846" x2="330.244" y2="371.106"/>
<line x1="276.855" y1="348.992" x2="247.961" y2="494.251"/>
<line x1="359.138" y1="225.846" x2="276.855" y2="348.992"/>
<line x1="330.244" y1="371.106" x2="247.961" y2="494.251"/>
<line x1="482.283" y1="143.563" x2="359.138" y2="225.846"/>
<line x1="453.389" y1="288.823" x2="330.244" y2="371.106"/>
<line x1="400.000" y1="266.708" x2="276.855" y2="348.992"/>
<line x1="371.106" y1="411.968" x2="247.961" y2="494.251"/>
<line x1="337.023" y1="172.457" x2="308.129" y2="317.717"/>
<line x1="254.740" y1="295.602" x2="225.846" y2="440.862"/>
<line x1="337.023" y1="172.457" x2="254.740" y2="295.602"/>
<line x1="308.129" y1="317.717" x2="225.846" y2="440.862"/>
<line x1="213.878" y1="254.740" x2="184.984" y2="400.000"/>
<line x1="131.595" y1="377.885" x2="102.701" y2="523.145"/>
<line x1="213.878" y1="254.740" x2="131.595" y2="377.885"/>
<line x1="184.984" y1="400.000" x2="102.701" y2="523.145"/>
<line x1="337.023" y1="172.457" x2="213.878" y2="254.740"/>
<line x1="308.129" y1="317.717" x2="184.984" y2="400.000"/>
<line x1="254.740" y1="295.602" x2="131.595" y2="377.885"/>
<line x1="225.846" y1="440.862" x2="102.701" y2="523.145"/>
<line x1="482.283" y1="143.563" x2="337.023" y2="172.457"/>
<line x1="453.389" y1="288.823" x2="308.129" y2="317.717"/>
<line x1="400.000" y1="266.708" x2="254.740" y2="295.602"/>
<line x1="371.106" y1="411.968" x2="225.846" y2="440.862"/>
<line x1="359.138" y1="225.846" x2="213.878" y2="254.740"/>
<line x1="330.244" y1="371.106" x2="184.984" y2="400.000"/>
<line x1="276.855" y1="348.992" x2="131.595" y2="377.885"/>
<line x1="247.961" y1="494.251" x2="102.701" y2="523.145"/>
<line x1="627.543" y1="172.457" x2="482.283" y2="143.563"/>
<line x1="598.649" y1="317.717" x2="453.389" y2="288.823"/>
<line x1="545.260" y1="295.602" x2="400.000" y2="266.708"/>
<line x1="516.366" y1="440.862" x2="371.106" y2="411.968"/>
<line x1="504.398" y1="254.740" x2="359.138" y2="225.846"/>
<line x1="475.504" y1="400.000" x2="330.244" y2="371.106"/>
<line x1="422.115" y1="377.885" x2="276.855" y2="348.992"/>
<line x1="393.221" y1="523.145" x2="247.961" y2="494.251"/>
<line x1="482.283" y1="201.351" x2="337.023" y2="172.457"/>
<line x1="453.389" y1="346.611" x2="308.129" y2="317.717"/>
<line x1="400.000" y1="324.496" x2="254.740" y2="295.602"/>
<line x1="371.106" y1="469.756" x2="225.846" y2="440.862"/>
<line x1="359.138" y1="283.634" x2="213.878" y2="254.740"/>
<line x1="330.244" y1="428.894" x2="184.984" y2="400.000"/>
<line x1="276.855" y1="406.779" x2="131.595" y2="377.885"/>
<line x1="247.961" y1="552.039" x2="102.701" y2="523.145"/>
<line x1="750.688" y1="254.740" x2="627.543" y2="172.457"/>
<line x1="721.794" y1="400.000" x2="598.649" y2="317.717"/>
<line x1="668.405" y1="377.885" x2="545.260" y2="295.602"/>
<line x1="639.511" y1="523.145" x2="516.366" y2="440.862"/>
<line x1="627.543" y1="337.023" x2="504.398" y2="254.740"/>
<line x1="598.649" y1="482.283" x2="475.504" y2="400.000"/>
<line x1="545.260" y1="460.169" x2="422.115" y2="377.885"/>
<line x1="516.366" y1="605.428" x2="393.221" y2="523.145"/>
<line x1="605.428" y1="283.634" x2="482.283" y2="201.351"/>
<line x1="576.534" y1="428.894" x2="453.389" y2="346.611"/>
<line x1="523.145" y1="406.779" x2="400.000" y2="324.496"/>
<line x1="494.251" y1="552.039" x2="371.106" y2="469.756"/>
<line x1="482.283" y1="365.917" x2="359.138" y2="283.634"/>
<line x1="453.389" y1="511.177" x2="330.244" y2="428.894"/>
<line x1="400.000" y1="489.063" x2="276.855" y2="406.779"/>
<line x1="371.106" y1="634.323" x2="247.961" y2="552.039"/>
<line x1="605.428" y1="225.846" x2="482.283" y2="143.563"/>
<line x1="576.534" y1="371.106" x2="453.389" y2="288.823"/>
<line x1="523.145" y1="348.992" x2="400.000" y2="266.708"/>
<line x1="494.251" y1="494.251" x2="371.106" y2="411.968"/>
<line x1="482.283" y1="308.129" x2="359.138" y2="225.846"/>
<line x1="453.389" y1="453.389" x2="330.244" y2="371.106"/>
<line x1="400.000" y1="431.275" x2="276.855" y2="348.992"/>
<line x1="371.106" y1="576.534" x2="247.961" y2="494.251"/>
<line x1="460.169" y1="254.740" x2="337.023" y2="172.457"/>
<line x1="431.275" y1="400.000" x2="308.129" y2="317.717"/>
<line x1="377.885" y1="377.885" x2="254.740" y2="295.602"/>
<line x1="348.992" y1="523.145" x2="225.846" y2="440.862"/>
<line x1="337.023" y1="337.023" x2="213.878" y2="254.740"/>
<line x1="308.129" y1="482.283" x2="184.984" y2="400.000"/>
<line x1="254.740" y1="460.169" x2="131.595" y2="377.885"/>
<line x1="225.846" y1="605.428" x2="102.701" y2="523.145"/>
<line x1="668.405" y1="131.595" x2="639.511" y2="276.855"/>
<line x1="586.122" y1="254.740" x2="557.228" y2="400.000"/>
<line x1="668.405" y1="131.595" x2="586.122" y2="254.740"/>
<line x1="639.511" y1="276.855" x2="557.228" y2="400.000"/>
<line x1="545.260" y1="213.878" x2="516.366" y2="359.138"/>
<line x1="462.977" y1="337.023" x2="434.083" y2="482.283"/>
<line x1="545.260" y1="213.878" x2="462.977" y2="337.023"/>
<line x1="516.366" y1="359.138" x2="434.083" y2="482.283"/>
<line x1="668.405" y1="131.595" x2="545.260" y2="213.878"/>
<line x1="639.511" y1="276.855" x2="516.366" y2="359.138"/>
<line x1="586.122" y1="254.740" x2="462.977" y2="337.023"/>
<line x1="557.228" y1="400.000" x2="434.083" y2="482.283"/>
<line x1="523.145" y1="160.489" x2="494.251" y2="305.749"/>
<line x1="440.862" y1="283.634" x2="411.968" y2="428.894"/>
<line x1="523.145" y1="160.489" x2="440.862" y2="283.634"/>
<line x1="494.251" y1="305.749" x2="411.968" y2="428.894"/>
<line x1="400.000" y1="242.772" x2="371.106" y2="388.032"/>
<line x1="317.717" y1="365.917" x2="288.823" y2="511.177"/>
<line x1="400.000" y1="242.772" x2="317.717" y2="365.917"/>
<line x1="371.106" y1="388.032" x2="288.823" y2="511.177"/>
<line x1="523.145" y1="160.489" x2="400.000" y2="242.772"/>
<line x1="494.251" y1="305.749" x2="371.106" y2="388.032"/>
<line x1="440.862" y1="283.634" x2="317.717" y2="365.917"/>
<line x1="411.968" y1="428.894" x2="288.823" y2="511.177"/>
<line x1="668.405" y1="131.595" x2="523.145" y2="160.489"/>
<line x1="639.511" y1="276.855" x2="494.251" y2="305.749"/>
<line x1="586.122" y1="254.740" x2="440.862" y2="283.634"/>
<line x1="557.228" y1="400.000" x2="411.968" y2="428.894"/>
<line x1="545.260" y1="213.878" x2="400.000" y2="242.772"/>
<line x1="516.366" y1="359.138" x2="371.106" y2="388.032"/>
<line x1="462.977" y1="337.023" x2="317.717" y2="365.917"/>
<line x1="434.083" y1="482.283" x2="288.823" y2="511.177"/>
<line x1="523.145" y1="102.701" x2="494.251" y2="247.961"/>
<line x1="440.862" y1="225.846" x2="411.968" y2="371.106"/>
<line x1="523.145" y1="102.701" x2="440.862" y2="225.846"/>
<line x1="494.251" y1="247.961" x2="411.968" y2="371.106"/>
<line x1="400.000" y1="184.984" x2="371.106" y2="330.244"/>
<line x1="317.717" y1="308.129" x2="288.823" y2="453.389"/>
<line x1="400.000" y1="184.984" x2="317.717" y2="308.129"/>
<line x1="371.106" y1="330.244" x2="288.823" y2="453.389"/>
<line x1="523.145" y1="102.701" x2="400.000" y2="184.984"/>
<line x1="494.251" y1="247.961" x2="371.106" y2="330.244"/>
<line x1="440.862" y1="225.846" x2="317.717" y2="308.129"/>
<line x1="411.968" y1="371.106" x2="288.823" y2="453.389"/>
<line x1="377.885" y1="131.595" x2="348.992" y2="276.855"/>
<line x1="295.602" y1="254.740" x2="266.708" y2="400.000"/>
<line x1="377.885" y1="131.595" x2="295.602" y2="254.740"/>
<line x1="348.992" y1="276.855" x2="266.708" y2="400.000"/>
<line x1="254.740" y1="213.878" x2="225.846" y2="359.138"/>
<line x1="172.457" y1="337.023" x2="143.563" y2="482.283"/>
<line x1="254.740" y1="213.878" x2="172.457" y2="337.023"/>
<line x1="225.846" y1="359.138" x2="143.563" y2="482.283"/>
<line x1="377.885" y1="131.595" x2="254.740" y2="213.878"/>
<line x1="348.992" y1="276.855" x2="225.846" y2="359.138"/>
<line x1="295.602" y1="254.740" x2="172.457" y2="337.023"/>
<line x1="266.708" y1="400.000" x2="143.563" y2="482.283"/>
<line x1="523.145" y1="102.701" x2="377.885" y2="131.595"/>
<line x1="494.251" y1="247.961" x2="348.992" y2="276.855"/>
<line x1="440.862" y1="225.846" x2="295.602" y2="254.740"/>
<line x1="411.968" y1="371.106" x2="266.708" y2="400.000"/>
<line x1="400.000" y1="184.984" x2="254.740" y2="213.878"/>
<line x1="371.106" y1="330.244" x2="225.846" y2="359.138"/>
<line x1="317.717" y1="308.129" x2="172.457" y2="337.023"/>
<line x1="288.823" y1="453.389" x2="143.563" y2="482.283"/>
<line x1="668.405" y1="131.595" x2="523.145" y2="102.701"/>
<line x1="639.511" y1="276.855" x2="494.251" y2="247.961"/>
<line x1="586.122" y1="254.740" x2="440.862" y2="225.846"/>
<line x1="557.228" y1="400.000" x2="411.968" y2="371.106"/>
<line x1="545.260" y1="213.878" x2="400.000" y2="184.984"/>
<line x1="516.366" y1="359.138" x2="371.106" y2="330.244"/>
<line x1="462.977" y1="337.023" x2="317.717" y2="308.129"/>
<line x1="434.083" y1="482.283" x2="288.823" y2="453.389"/>
<line x1="523.145" y1="160.489" x2="377.885" y2="131.595"/>
<line x1="494.251" y1="305.749" x2="348.992" y2="276.855"/>
<line x1="440.862" y1="283.634" x2="295.602" y2="254.740"/>
<line x1="411.968" y1="428.894" x2="266.708" y2="400.000"/>
<line x1="400.000" y1="242.772" x2="254.740" y2="213.878"/>
<line x1="371.106" y1="388.032" x2="225.846" y2="359.138"/>
<line x1="317.717" y1="365.917" x2="172.457" y2="337.023"/>
<line x1="288.823" y1="511.177" x2="143.563" y2="482.283"/>
<line x1="545.260" y1="49.312" x2="516.366" y2="194.572"/>
<line x1="462.977" y1="172.457" x2="434.083" y2="317.717"/>
<line x1="545.260" y1="49.312" x2="462.977" y2="172.457"/>
<line x1="516.366" y1="194.572" x2="434.083" y2="317.717"/>
<line x1="422.115" y1="131.595" x2="393.221" y2="276.855"/>
<line x1="339.831" y1="254.740" x2="310.937" y2="400.000"/>
<line x1="422.115" y1="131.595" x2="339.831" y2="254.740"/>
<line x1="393.221" y1="276.855" x2="310.937" y2="400.000"/>
<line x1="545.260" y1="49.312" x2="422.115" y2="131.595"/>
<line x1="516.366" y1="194.572" x2="393.221" y2="276.855"/>
<line x1="462.977" y1="172.457" x2="339.831" y2="254.740"/>
<line x1="434.083" y1="317.717" x2="310.937" y2="400.000"/>
<line x1="400.000" y1="78.206" x2="371.106" y2="223.465"/>
<line x1="317.717" y1="201.351" x2="288.823" y2="346.611"/>
<line x1="400.000" y1="78.206" x2="317.717" y2="201.351"/>
<line x1="371.106" y1="223.465" x2="288.823" y2="346.611"/>
<line x1="276.855" y1="160.489" x2="247.961" y2="305.749"/>
<line x1="194.572" y1="283.634" x2="165.678" y2="428.894"/>
<line x1="276.855" y1="160.489" x2="194.572" y2="283.634"/>
<line x1="247.961" y1="305.749" x2="165.678" y2="428.894"/>
<line x1="400.000" y1="78.206" x2="276.855" y2="160.489"/>
<line x1="371.106" y1="223.465" x2="247.961" y2="305.749"/>
<line x1="317.717" y1="201.351" x2="194.572" y2="283.634"/>
<line x1="288.823" y1="346.611" x2="165.678" y2="428.894"/>
<line x1="545.260" y1="49.312" x2="400.000" y2="78.206"/>
<line x1="516.366" y1="194.572" x2="371.106" y2="223.465"/>
<line x1="462.977" y1="172.457" x2="317.717" y2="201.351"/>
<line x1="434.083" y1="317.717" x2="288.823" y2="346.611"/>
<line x1="422.115" y1="131.595" x2="276.855" y2="160.489"/>
<line x1="393.221" y1="276.855" x2="247.961" y2="305.749"/>
<line x1="339.831" y1="254.740" x2="194.572" y2="283.634"/>
<line x1="310.937" y1="400.000" x2="165.678" y2="428.894"/>
<line x1="400.000" y1="20.418" x2="371.106" y2="165.678"/>
<line x1="317.717" y1="143.563" x2="288.823" y2="288.823"/>
<line x1="400.000" y1="20.418" x2="317.717" y2="143.563"/>
<line x1="371.106" y1="165.678" x2="288.823" y2="288.823"/>
<line x1="276.855" y1="102.701" x2="247.961" y2="247.961"/>
<line x1="194.572" y1="225.846" x2="165.678" y2="371.106"/>
<line x1="276.855" y1="102.701" x2="194.572" y2="225.846"/>
<line x1="247.961" y1="247.961" x2="165.678" y2="371.106"/>
<line x1="400.000" y1="20.418" x2="276.855" y2="102.701"/>
<line x1="371.106" y1="165.678" x2="247.961" y2="247.961"/>
<line x1="317.717" y1="143.563" x2="194.572" y2="225.846"/>
<line x1="288.823" y1="288.823" x2="165.678" y2="371.106"/>
<line x1="254.740" y1="49.312" x2="225.846" y2="194.572"/>
<line x1="172.457" y1="172.457" x2="143.563" y2="317.717"/>
<line x1="254.740" y1="49.312" x2="172.457" y2="172.457"/>
<line x1="225.846" y1="194.572" x2="143.563" y2="317.717"/>
<line x1="131.595" y1="131.595" x2="102.701" y2="276.855"/>
<line x1="49.312" y1="254.740" x2="20.418" y2="400.000"/>
<line x1="131.595" y1="131.595" x2="49.312" y2="254.740"/>
<line x1="102.701" y1="276.855" x2="20.418" y2="400.000"/>
<line x1="254.740" y1="49.312" x2="131.595" y2="131.595"/>
<line x1="225.846" y1="194.572" x2="102.701" y2="276.855"/>
<line x1="172.457" y1="172.457" x2="49.312" y2="254.740"/>
<line x1="143.563" y1="317.717" x2="20.418" y2="400.000"/>
<line x1="400.000" y1="20.418" x2="254.740" y2="49.312"/>
<line x1="371.106" y1="165.678" x2="225.846" y2="194.572"/>
<line x1="317.717" y1="143.563" x2="172.457" y2="172.457"/>
<line x1="288.823" y1="288.823" x2="143.563" y2="317.717"/>
<line x1="276.855" y1="102.701" x2="131.595" y2="131.595"/>
<line x1="247.961" y1="247.961" x2="102.701" y2="276.855"/>
<line x1="194.572" y1="225.846" x2="49.312" y2="254.740"/>
<line x1="165.678" y1="371.106" x2="20.418" y2="400.000"/>
<line x1="545.260" y1="49.312" x2="400.000" y2="20.418"/>
<line x1="516.366" y1="194.572" x2="371.106" y2="165.678"/>
<line x1="462.977" y1="172.457" x2="317.717" y2="143.563"/>
<line x1="434.083" y1="317.717" x2="288.823" y2="288.823"/>
<line x1="422.115" y1="131.595" x2="276.855" y2="102.701"/>
<line x1="393.221" y1="276.855" x2="247.961" y2="247.961"/>
<line x1="339.831" y1="254.740" x2="194.572" y2="225.846"/>
<line x1="310.937" y1="400.000" x2="165.678" y2="371.106"/>
<line x1="400.000" y1="78.206" x2="254.740" y2="49.312"/>
<line x1="371.106" y1="223.465" x2="225.846" y2="194.572"/>
<line x1="317.717" y1="201.351" x2="172.457" y2="172.457"/>
<line x1="288.823" y1="346.611" x2="143.563" y2="317.717"/>
<line x1="276.855" y1="160.489" x2="131.595" y2="131.595"/>
<line x1="247.961" y1="305.749" x2="102.701" y2="276.855"/>
<line x1="194.572" y1="283.634" x2="49.312" y2="254.740"/>
<line x1="165.678" y1="428.894" x2="20.418" y2="400.000"/>
<line x1="668.405" y1="131.595" x2="545.260" y2="49.312"/>
<line x1="639.511" y1="276.855" x2="516.366" y2="194.572"/>
<line x1="586.122" y1="254.740" x2="462.977" y2="172.457"/>
<line x1="557.228" y1="400.000" x2="434.083" y2="317.717"/>
<line x1="545.260" y1="213.878" x2="422.115" y2="131.595"/>
<line x1="516.366" y1="359.138" x2="393.221" y2="276.855"/>
<line x1="462.977" y1="337.023" x2="339.831" y2="254.740"/>
<line x1="434.083" y1="482.283" x2="310.937" y2="400.000"/>
<line x1="523.145" y1="160.489" x2="400.000" y2="78.206"/>
<line x1="494.251" y1="305.749" x2="371.106" y2="223.465"/>
<line x1="440.862" y1="283.634" x2="317.717" y2="201.351"/>
<line x1="411.968" y1="428.894" x2="288.823" y2="346.611"/>
<line x1="400.000" y1="242.772" x2="276.855" y2="160.489"/>
<line x1="371.106" y1="388.032" x2="247.961" y2="305.749"/>
<line x1="317.717" y1="365.917" x2="194.572" y2="283.634"/>
<line x1="288.823" y1="511.177" x2="165.678" y2="428.894"/>
<line x1="523.145" y1="102.701" x2="400.000" y2="20.418"/>
<line x1="494.251" y1="247.961" x2="371.106" y2="165.678"/>
<line x1="440.862" y1="225.846" x2="317.717" y2="143.563"/>
<line x1="411.968" y1="371.106" x2="288.823" y2="288.823"/>
<line x1="400.000" y1="184.984" x2="276.855" y2="102.701"/>
<line x1="371.106" y1="330.244" x2="247.961" y2="247.961"/>
<line x1="317.717" y1="308.129" x2="194.572" y2="225.846"/>
<line x1="288.823" y1="453.389" x2="165.678" y2="371.106"/>
<line x1="377.885" y1="131.595" x2="254.740" y2="49.312"/>
<line x1="348.992" y1="276.855" x2="225.846" y2="194.572"/>
<line x1="295.602" y1="254.740" x2="172.457" y2="172.457"/>
<line x1="266.708" y1="400.000" x2="143.563" y2="317.717"/>
<line x1="254.740" y1="213.878" x2="131.595" y2="131.595"/>
<line x1="225.846" y1="359.138" x2="102.701" y2="276.855"/>
<line x1="172.457" y1="337.023" x2="49.312" y2="254.740"/>
<line x1="143.563" y1="482.283" x2="20.418" y2="400.000"/>
<line x1="750.688" y1="254.740" x2="668.405" y2="131.595"/>
<line x1="721.794" y1="400.000" x2="639.511" y2="276.855"/>
<line x1="668.405" y1="377.885" x2="586.122" y2="254.740"/>
<line x1="639.511" y1="523.145" x2="557.228" y2="400.000"/>
<line x1="627.543" y1="337.023" x2="545.260" y2="213.878"/>
<line x1="598.649" y1="482.283" x2="516.366" y2="359.138"/>
<line x1="545.260" y1="460.169" x2="462.977" y2="337.023"/>
<line x1="516.366" y1="605.428" x2="434.083" y2="482.283"/>
<line x1="605.428" y1="283.634" x2="523.145" y2="160.489"/>
<line x1="576.534" y1="428.894" x2="494.251" y2="305.749"/>
<line x1="523.145" y1="406.779" x2="440.862" y2="283.634"/>
<line x1="494.251" y1="552.039" x2="411.968" y2="428.894"/>
<line x1="482.283" y1="365.917" x2="400.000" y2="242.772"/>
<line x1="453.389" y1="511.177" x2="371.106" y2="388.032"/>
<line x1="400.000" y1="489.063" x2="317.717" y2="365.917"/>
<line x1="371.106" y1="634.323" x2="288.823" y2="511.177"/>
<line x1="605.428" y1="225.846" x2="523.145" y2="102.701"/>
<line x1="576.534" y1="371.106" x2="494.251" y2="247.961"/>
<line x1="523.145" y1="348.992" x2="440.862" y2="225.846"/>
<line x1="494.251" y1="494.251" x2="411.968" y2="371.106"/>
<line x1="482.283" y1="308.129" x2="400.000" y2="184.984"/>
<line x1="453.389" y1="453.389" x2="371.106" y2="330.244"/>
<line x1="400.000" y1="431.275" x2="317.717" y2="308.129"/>
<line x1="371.106" y1="576.534" x2="288.823" y2="453.389"/>
<line x1="460.169" y1="254.740" x2="377.885" y2="131.595"/>
<line x1="431.275" y1="400.000" x2="348.992" y2="276.855"/>
<line x1="377.885" y1="377.885" x2="295.602" y2="254.740"/>
<line x1="348.992" y1="523.145" x2="266.708" y2="400.000"/>
<line x1="337.023" y1="337.023" x2="254.740" y2="213.878"/>
<line x1="308.129" y1="482.283" x2="225.846" y2="359.138"/>
<line x1="254.740" y1="460.169" x2="172.457" y2="337.023"/>
<line x1="225.846" y1="605.428" x2="143.563" y2="482.283"/>
<line x1="627.543" y1="172.457" x2="545.260" y2="49.312"/>
<line x1="598.649" y1="317.717" x2="516.366" y2="194.572"/>
<line x1="545.260" y1="295.602" x2="462.977" y2="172.457"/>
<line x1="516.366" y1="440.862" x2="434.083" y2="317.717"/>
<line x1="504.398" y1="254.740" x2="422.115" y2="131.595"/>
<line x1="475.504" y1="400.000" x2="393.221" y2="276.855"/>
<line x1="422.115" y1="377.885" x2="339.831" y2="254.740"/>
<line x1="393.221" y1="523.145" x2="310.937" y2="400.000"/>
<line x1="482.283" y1="201.351" x2="400.000" y2="78.206"/>
<line x1="453.389" y1="346.611" x2="371.106" y2="223.465"/>
<line x1="400.000" y1="324.496" x2="317.717" y2="201.351"/>
<line x1="371.106" y1="469.756" x2="288.823" y2="346.611"/>
<line x1="359.138" y1="283.634" x2="276.855" y2="160.489"/>
<line x1="330.244" y1="428.894" x2="247.961" y2="305.749"/>
<line x1="276.855" y1="406.779" x2="194.572" y2="283.634"/>
<line x1="247.961" y1="552.039" x2="165.678" y2="428.894"/>
<line x1="482.283" y1="143.563" x2="400.000" y2="20.418"/>
<line x1="453.389" y1="288.823" x2="371.106" y2="165.678"/>
<line x1="400.000" y1="266.708" x2="317.717" y2="143.563"/>
<line x1="371.106" y1="411.968" x2="288.823" y2="288.823"/>
<line x1="359.138" y1="225.846" x2="276.855" y2="102.701"/>
<line x1="330.244" y1="371.106" x2="247.961" y2="247.961"/>
<line x1="276.855" y1="348.992" x2="194.572" y2="225.846"/>
<line x1="247.961" y1="494.251" x2="165.678" y2="371.106"/>
<line x1="337.023" y1="172.457" x2="254.740" y2="49.312"/>
<line x1="308.129" y1="317.717" x2="225.846" y2="194.572"/>
<line x1="254.740" y1="295.602" x2="172.457" y2="172.457"/>
<line x1="225.846" y1="440.862" x2="143.563" y2="317.717"/>
<line x1="213.878" y1="254.740" x2="131.595" y2="131.595"/>
<line x1="184.984" y1="400.000" x2="102.701" y2="276.855"/>
<line x1="131.595" y1="377.885" x2="49.312" y2="254.740"/>
<line x1="102.701" y1="523.145" x2="20.418" y2="400.000"/>
<line x1="779.582" y1="400.000" x2="750.688" y2="254.740"/>
<line x1="750.688" y1="545.260" x2="721.794" y2="400.000"/>
<line x1="697.299" y1="523.145" x2="668.405" y2="377.885"/>
<line x1="668.405" y1="668.405" x2="639.511" y2="523.145"/>
<line x1="656.437" y1="482.283" x2="627.543" y2="337.023"/>
<line x1="627.543" y1="627.543" x2="598.649" y2="482.283"/>
<line x1="574.154" y1="605.428" x2="545.260" y2="460.169"/>
<line x1="545.260" y1="750.688" x2="516.366" y2="605.428"/>
<line x1="634.323" y1="428.894" x2="605.428" y2="283.634"/>
<line x1="605.428" y1="574.154" x2="576.534" y2="428.894"/>
<line x1="552.039" y1="552.039" x2="523.145" y2="406.779"/>
<line x1="523.145" y1="697.299" x2="494.251" y2="552.039"/>
<line x1="511.177" y1="511.177" x2="482.283" y2="365.917"/>
<line x1="482.283" y1="656.437" x2="453.389" y2="511.177"/>
<line x1="428.894" y1="634.323" x2="400.000" y2="489.063"/>
<line x1="400.000" y1="779.582" x2="371.106" y2="634.323"/>
<line x1="634.323" y1="371.106" x2="605.428" y2="225.846"/>
<line x1="605.428" y1="516.366" x2="576.534" y2="371.106"/>
<line x1="552.039" y1="494.251" x2="523.145" y2="348.992"/>
<line x1="523.145" y1="639.511" x2="494.251" y2="494.251"/>
<line x1="511.177" y1="453.389" x2="482.283" y2="308.129"/>
<line x1="482.283" y1="598.649" x2="453.389" y2="453.389"/>
<line x1="428.894" y1="576.534" x2="400.000" y2="431.275"/>
<line x1="400.000" y1="721.794" x2="371.106" y2="576.534"/>
<line x1="489.063" y1="400.000" x2="460.169" y2="254.740"/>
<line x1="460.169" y1="545.260" x2="431.275" y2="400.000"/>
<line x1="406.779" y1="523.145" x2="377.885" y2="377.885"/>
<line x1="377.885" y1="668.405" x2="348.992" y2="523.145"/>
<line x1="365.917" y1="482.283" x2="337.023" y2="337.023"/>
<line x1="337.023" y1="627.543" x2="308.129" y2="482.283"/>
<line x1="283.634" y1="605.428" x2="254.740" y2="460.169"/>
<line x1="254.740" y1="750.688" x2="225.846" y2="605.428"/>
<line x1="656.437" y1="317.717" x2="627.543" y2="172.457"/>
<line x1="627.543" y1="462.977" x2="598.649" y2="317.717"/>
<line x1="574.154" y1="440.862" x2="545.260" y2="295.602"/>
<line x1="545.260" y1="586.122" x2="516.366" y2="440.862"/>
<line x1="533.292" y1="400.000" x2="504.398" y2="254.740"/>
<line x1="504.398" y1="545.260" x2="475.504" y2="400.000"/>
<line x1="451.008" y1="523.145" x2="422.115" y2="377.885"/>
<line x1="422.115" y1="668.405" x2="393.221" y2="523.145"/>
<line x1="511.177" y1="346.611" x2="482.283" y2="201.351"/>
<line x1="482.283" y1="491.871" x2="453.389" y2="346.611"/>
<line x1="428.894" y1="469.756" x2="400.000" y2="324.496"/>
<line x1="400.000" y1="615.016" x2="371.106" y2="469.756"/>
<line x1="388.032" y1="428.894" x2="359.138" y2="283.634"/>
<line x1="359.138" y1="574.154" x2="330.244" y2="428.894"/>
<line x1="305.749" y1="552.039" x2="276.855" y2="406.779"/>
<line x1="276.855" y1="697.299" x2="247.961" y2="552.039"/>
<line x1="511.177" y1="288.823" x2="482.283" y2="143.563"/>
<line x1="482.283" y1="434.083" x2="453.389" y2="288.823"/>
<line x1="428.894" y1="411.968" x2="400.000" y2="266.708"/>
<line x1="400.000" y1="557.228" x2="371.106" y2="411.968"/>
<line x1="388.032" y1="371.106" x2="359.138" y2="225.846"/>
<line x1="359.138" y1="516.366" x2="330.244" y2="371.106"/>
<line x1="305.749" y1="494.251" x2="276.855" y2="348.992"/>
<line x1="276.855" y1="639.511" x2="247.961" y2="494.251"/>
<line x1="365.917" y1="317.717" x2="337.023" y2="172.457"/>
<line x1="337.023" y1="462.977" x2="308.129" y2="317.717"/>
<line x1="283.634" y1="440.862" x2="254.740" y2="295.602"/>
<line x1="254.740" y1="586.122" x2="225.846" y2="440.862"/>
<line x1="242.772" y1="400.000" x2="213.878" y2="254.740"/>
<line x1="213.878" y1="545.260" x2="184.984" y2="400.000"/>
<line x1="160.489" y1="523.145" x2="131.595" y2="377.885"/>
<line x1="131.595" y1="668.405" x2="102.701" y2="523.145"/>
<line x1="697.299" y1="276.855" x2="668.405" y2="131.595"/>
<line x1="668.405" y1="422.115" x2="639.511" y2="276.855"/>
<line x1="615.016" y1="400.000" x2="586.122" y2="254.740"/>
<line x1="586.122" y1="545.260" x2="557.228" y2="400.000"/>
<line x1="574.154" y1="359.138" x2="545.260" y2="213.878"/>
<line x1="545.260" y1="504.398" x2="516.366" y2="359.138"/>
<line x1="491.871" y1="482.283" x2="462.977" y2="337.023"/>
<line x1="462.977" y1="627.543" x2="434.083" y2="482.283"/>
<line x1="552.039" y1="305.749" x2="523.145" y2="160.489"/>
<line x1="523.145" y1="451.008" x2="494.251" y2="305.749"/>
<line x1="469.756" y1="428.894" x2="440.862" y2="283.634"/>
<line x1="440.862" y1="574.154" x2="411.968" y2="428.894"/>
<line x1="428.894" y1="388.032" x2="400.000" y2="242.772"/>
<line x1="400.000" y1="533.292" x2="371.106" y2="388.032"/>
<line x1="346.611" y1="511.177" x2="317.717" y2="365.917"/>
<line x1="317.717" y1="656.437" x2="288.823" y2="511.177"/>
<line x1="552.039" y1="247.961" x2="523.145" y2="102.701"/>
<line x1="523.145" y1="393.221" x2="494.251" y2="247.961"/>
<line x1="469.756" y1="371.106" x2="440.862" y2="225.846"/>
<line x1="440.862" y1="516.366" x2="411.968" y2="371.106"/>
<line x1="428.894" y1="330.244" x2="400.000" y2="184.984"/>
<line x1="400.000" y1="475.504" x2="371.106" y2="330.244"/>
<line x1="346.611" y1="453.389" x2="317.717" y2="308.129"/>
<line x1="317.717" y1="598.649" x2="288.823" y2="453.389"/>
<line x1="406.779" y1="276.855" x2="377.885" y2="131.595"/>
<line x1="377.885" y1="422.115" x2="348.992" y2="276.855"/>
<line x1="324.496" y1="400.000" x2="295.602" y2="254.740"/>
<line x1="295.602" y1="545.260" x2="266.708" y2="400.000"/>
<line x1="283.634" y1="359.138" x2="254.740" y2="213.878"/>
<line x1="254.740" y1="504.398" x2="225.846" y2="359.138"/>
<line x1="201.351" y1="482.283" x2="172.457" y2="337.023"/>
<line x1="172.457" y1="627.543" x2="143.563" y2="482.283"/>
<line x1="574.154" y1="194.572" x2="545.260" y2="49.312"/>
<line x1="545.260" y1="339.831" x2="516.366" y2="194.572"/>
<line x1="491.871" y1="317.717" x2="462.977" y2="172.457"/>
<line x1="462.977" y1="462.977" x2="434.083" y2="317.717"/>
<line x1="451.008" y1="276.855" x2="422.115" y2="131.595"/>
<line x1="422.115" y1="422.115" x2="393.221" y2="276.855"/>
<line x1="368.725" y1="400.000" x2="339.831" y2="254.740"/>
<line x1="339.831" y1="545.260" x2="310.937" y2="400.000"/>
<line x1="428.894" y1="223.465" x2="400.000" y2="78.206"/>
<line x1="400.000" y1="368.725" x2="371.106" y2="223.465"/>
<line x1="346.611" y1="346.611" x2="317.717" y2="201.351"/>
<line x1="317.717" y1="491.871" x2="288.823" y2="346.611"/>
<line x1="305.749" y1="305.749" x2="276.855" y2="160.489"/>
<line x1="276.855" y1="451.008" x2="247.961" y2="305.749"/>
<line x1="223.465" y1="428.894" x2="194.572" y2="283.634"/>
<line x1="194.572" y1="574.154" x2="165.678" y2="428.894"/>
<line x1="428.894" y1="165.678" x2="400.000" y2="20.418"/>
<line x1="400.000" y1="310.937" x2="371.106" y2="165.678"/>
<line x1="346.611" y1="288.823" x2="317.717" y2="143.563"/>
<line x1="317.717" y1="434.083" x2="288.823" y2="288.823"/>
<line x1="305.749" y1="247.961" x2="276.855" y2="102.701"/>
<line x1="276.855" y1="393.221" x2="247.961" y2="247.961"/>
<line x1="223.465" y1="371.106" x2="194.572" y2="225.846"/>
<line x1="194.572" y1="516.366" x2="165.678" y2="371.106"/>
<line x1="283.634" y1="194.572" x2="254.740" y2="49.312"/>
<line x1="254.740" y1="339.831" x2="225.846" y2="194.572"/>
<line x1="201.351" y1="317.717" x2="172.457" y2="172.457"/>
<line x1="172.457" y1="462.977" x2="143.563" y2="317.717"/>
<line x1="160.489" y1="276.855" x2="131.595" y2="131.595"/>
<line x1="131.595" y1="422.115" x2="102.701" y2="276.855"/>
<line x1="78.206" y1="400.000" x2="49.312" y2="254.740"/>
<line x1="49.312" y1="545.260" x2="20.418" y2="400.000"/>
</g>
<g style="stroke:#000000;stroke-width:2;fill:#ff0000">
<circle cx="779.582" cy="400.000" r="5"/>
<circle cx="750.688" cy="545.260" r="5"/>
<circle cx="697.299" cy="523.145" r="5"/>
<circle cx="668.405" cy="668.405" r="5"/>
<circle cx="656.437" cy="482.283" r="5"/>
<circle cx="627.543" cy="627.543" r="5"/>
<circle cx="574.154" cy="605.429" r="5"/>
<circle cx="545.260" cy="750.688" r="5"/>
<circle cx="634.322" cy="428.894" r="5"/>
<circle cx="605.429" cy="574.154" r="5"/>
<circle cx="552.039" cy="552.039" r="5"/>
<circle cx="523.145" cy="697.299" r="5"/>
<circle cx="511.177" cy="511.177" r="5"/>
<circle cx="482.283" cy="656.437" r="5"/>
<circle cx="428.894" cy="634.322" r="5"/>
<circle cx="400.000" cy="779.582" r="5"/>
<circle cx="634.322" cy="371.106" r="5"/>
<circle cx="605.429" cy="516.366" r="5"/>
<circle cx="552.039" cy="494.251" r="5"/>
<circle cx="523.145" cy="639.511" r="5"/>
<circle cx="511.177" cy="453.389" r="5"/>
<circle cx="482.283" cy="598.649" r="5"/>
<circle cx="428.894" cy="576.535" r="5"/>
<circle cx="400.000" cy="721.794" r="5"/>
<circle cx="489.063" cy="400.000" r="5"/>
<circle cx="460.169" cy="545.260" r="5"/>
<circle cx="406.779" cy="523.145" r="5"/>
<circle cx="377.885" cy="668.405" r="5"/>
<circle cx="365.917" cy="482.283" r="5"/>
<circle cx="337.023" cy="627.543" r="5"/>
<circle cx="283.634" cy="605.429" r="5"/>
<circle cx="254.740" cy="750.688" r="5"/>
<circle cx="656.437" cy="317.717" r="5"/>
<circle cx="627.543" cy="462.977" r="5"/>
<circle cx="574.154" cy="440.862" r="5"/>
<circle cx="545.260" cy="586.122" r="5"/>
<circle cx="533.292" cy="400.000" r="5"/>
<circle cx="504.398" cy="545.260" r="5"/>
<circle cx="451.008" cy="523.145" r="5"/>
<circle cx="422.115" cy="668.405" r="5"/>
<circle cx="511.177" cy="346.611" r="5"/>
<circle cx="482.283" cy="491.871" r="5"/>
<circle cx="428.894" cy="469.756" r="5"/>
<circle cx="400.000" cy="615.016" r="5"/>
<circle cx="388.032" cy="428.894" r="5"/>
<circle cx="359.138" cy="574.154" r="5"/>
<circle cx="305.749" cy="552.039" r="5"/>
<circle cx="276.855" cy="697.299" r="5"/>
<circle cx="511.177" cy="288.823" r="5"/>
<circle cx="482.283" cy="434.083" r="5"/>
<circle cx="428.894" cy="411.968" r="5"/>
<circle cx="400.000" cy="557.228" r="5"/>
<circle cx="388.032" cy="371.106" r="5"/>
<circle cx="359.138" cy="516.366" r="5"/>
<circle cx="305.749" cy="494.251" r="5"/>
<circle cx="276.855" cy="639.511" r="5"/>
<circle cx="365.917" cy="317.717" r="5"/>
<circle cx="337.023" cy="462.977" r="5"/>
<circle cx="283.634" cy="440.862" r="5"/>
<circle cx="254.740" cy="586.122" r="5"/>
<circle cx="242.772" cy="400.000" r="5"/>
<circle cx="213.878" cy="545.260" r="5"/>
<circle cx="160.489" cy="523.145" r="5"/>
<circle cx="131.595" cy="668.405" r="5"/>
<circle cx="697.299" cy="276.855" r="5"/>
<circle cx="668.405" cy="422.115" r="5"/>
<circle cx="615.016" cy="400.000" r="5"/>
<circle cx="586.122" cy="545.260" r="5"/>
<circle cx="574.154" cy="359.138" r="5"/>
<circle cx="545.260" cy="504.398" r="5"/>
<circle cx="491.871" cy="482.283" r="5"/>
<circle cx="462.977" cy="627.543" r="5"/>
<circle cx="552.039" cy="305.749" r="5"/>
<circle cx="523.145" cy="451.008" r="5"/>
<circle cx="469.756" cy="428.894" r="5"/>
<circle cx="440.862" cy="574.154" r="5"/>
<circle cx="428.894" cy="388.032" r="5"/>
<circle cx="400.000" cy="533.292" r="5"/>
<circle cx="346.611" cy="511.177" r="5"/>
<circle cx="317.717" cy="656.437" r="5"/>
<circle cx="552.039" cy="247.961" r="5"/>
<circle cx="523.145" cy="393.221" r="5"/>
<circle cx="469.756" cy="371.106" r="5"/>
<circle cx="440.862" cy="516.366" r="5"/>
<circle cx="428.894" cy="330.244" r="5"/>
<circle cx="400.000" cy="475.504" r="5"/>
<circle cx="346.611" cy="453.389" r="5"/>
<circle cx="317.717" cy="598.649" r="5"/>
<circle cx="406.779" cy="276.855" r="5"/>
<circle cx="377.885" cy="422.115" r="5"/>
<circle cx="324.496" cy="400.000" r="5"/>
<circle cx="295.602" cy="545.260" r="5"/>
<circle cx="283.634" cy="359.138" r="5"/>
<circle cx="254.740" cy="504.398" r="5"/>
<circle cx="201.351" cy="482.283" r="5"/>
<circle cx="172.457" cy="627.543" r="5"/>
<circle cx="574.154" cy="194.571" r="5"/>
<circle cx="545.260" cy="339.831" r="5"/>
<circle cx="491.871" cy="317.717" r="5"/>
<circle cx="462.977" cy="462.977" r="5"/>
<circle cx="451.008" cy="276.855" r="5"/>
<circle cx="422.115" cy="422.115" r="5"/>
<circle cx="368.725" cy="400.000" r="5"/>
<circle cx="339.831" cy="545.260" r="5"/>
<circle cx="428.894" cy="223.465" r="5"/>
<circle cx="400.000" cy="368.725" r="5"/>
<circle cx="346.611" cy="346.611" r="5"/>
<circle cx="317.717" cy="491.871" r="5"/>
<circle cx="305.749" cy="305.749" r="5"/>
<circle cx="276.855" cy="451.008" r="5"/>
<circle cx="223.465" cy="428.894" r="5"/>
<circle cx="194.571" cy="574.154" r="5"/>
<circle cx="428.894" cy="165.678" r="5"/>
<circle cx="400.000" cy="310.937" r="5"/>
<circle cx="346.611" cy="288.823" r="5"/>
<circle cx="317.717" cy="434.083" r="5"/>
<circle cx="305.749" cy="247.961" r="5"/>
<circle cx="276.855" cy="393.221" r="5"/>
<circle cx="223.465" cy="371.106" r="5"/>
<circle cx="194.571" cy="516.366" r="5"/>
<circle cx="283.634" cy="194.571" r="5"/>
<circle cx="254.740" cy="339.831" r="5"/>
<circle cx="201.351" cy="317.717" r="5"/>
<circle cx="172.457" cy="462.977" r="5"/>
<circle cx="160.489" cy="276.855" r="5"/>
<circle cx="131.595" cy="422.115" r="5"/>
<circle cx="78.206" cy="400.000" r="5"/>
<circle cx="49.312" cy="545.260" r="5"/>
<circle cx="750.688" cy="254.740" r="5"/>
<circle cx="721.794" cy="400.000" r="5"/>
<circle cx="668.405" cy="377.885" r="5"/>
<circle cx="639.511" cy="523.145" r="5"/>
<circle cx="627.543" cy="337.023" r="5"/>
<circle cx="598.649" cy="482.283" r="5"/>
<circle cx="545.260" cy="460.169" r="5"/>
<circle cx="516.366" cy="605.429" r="5"/>
<circle cx="605.429" cy="283.634" r="5"/>
<circle cx="576.535" cy="428.894" r="5"/>
<circle cx="523.145" cy="406.779" r="5"/>
<circle cx="494.251" cy="552.039" r="5"/>
<circle cx="482.283" cy="365.917" r="5"/>
<circle cx="453.389" cy="511.177" r="5"/>
<circle cx="400.000" cy="489.063" r="5"/>
<circle cx="371.106" cy="634.322" r="5"/>
<circle cx="605.429" cy="225.846" r="5"/>
<circle cx="576.535" cy="371.106" r="5"/>
<circle cx="523.145" cy="348.992" r="5"/>
<circle cx="494.251" cy="494.251" r="5"/>
<circle cx="482.283" cy="308.129" r="5"/>
<circle cx="453.389" cy="453.389" r="5"/>
<circle cx="400.000" cy="431.275" r="5"/>
<circle cx="371.106" cy="576.535" r="5"/>
<circle cx="460.169" cy="254.740" r="5"/>
<circle cx="431.275" cy="400.000" r="5"/>
<circle cx="377.885" cy="377.885" r="5"/>
<circle cx="348.992" cy="523.145" r="5"/>
<circle cx="337.023" cy="337.023" r="5"/>
<circle cx="308.129" cy="482.283" r="5"/>
<circle cx="254.740" cy="460.169" r="5"/>
<circle cx="225.846" cy="605.429" r="5"/>
<circle cx="627.543" cy="172.457" r="5"/>
<circle cx="598.649" cy="317.717" r="5"/>
<circle cx="545.260" cy="295.602" r="5"/>
<circle cx="516.366" cy="440.862" r="5"/>
<circle cx="504.398" cy="254.740" r="5"/>
<circle cx="475.504" cy="400.000" r="5"/>
<circle cx="422.115" cy="377.885" r="5"/>
<circle cx="393.221" cy="523.145" r="5"/>
<circle cx="482.283" cy="201.351" r="5"/>
<circle cx="453.389" cy="346.611" r="5"/>
<circle cx="400.000" cy="324.496" r="5"/>
<circle cx="371.106" cy="469.756" r="5"/>
<circle cx="359.138" cy="283.634" r="5"/>
<circle cx="330.244" cy="428.894" r="5"/>
<circle cx="276.855" cy="406.779" r="5"/>
<circle cx="247.961" cy="552.039" r="5"/>
<circle cx="482.283" cy="143.563" r="5"/>
<circle cx="453.389" cy="288.823" r="5"/>
<circle cx="400.000" cy="266.708" r="5"/>
<circle cx="371.106" cy="411.968" r="5"/>
<circle cx="359.138" cy="225.846" r="5"/>
<circle cx="330.244" cy="371.106" r="5"/>
<circle cx="276.855" cy="348.992" r="5"/>
<circle cx="247.961" cy="494.251" r="5"/>
<circle cx="337.023" cy="172.457" r="5"/>
<circle cx="308.129" cy="317.717" r="5"/>
<circle cx="254.740" cy="295.602" r="5"/>
<circle cx="225.846" cy="440.862" r="5"/>
<circle cx="213.878" cy="254.740" r="5"/>
<circle cx="184.984" cy="400.000" r="5"/>
<circle cx="131.595" cy="377.885" r="5"/>
<circle cx="102.701" cy="523.145" r="5"/>
<circle cx="668.405" cy="131.595" r="5"/>
<circle cx="639.511" cy="276.855" r="5"/>
<circle cx="586.122" cy="254.740" r="5"/>
<circle cx="557.228" cy="400.000" r="5"/>
<circle cx="545.260" cy="213.878" r="5"/>
<circle cx="516.366" cy="359.138" r="5"/>
<circle cx="462.977" cy="337.023" r="5"/>
<circle cx="434.083" cy="482.283" r="5"/>
<circle cx="523.145" cy="160.489" r="5"/>
<circle cx="494.251" cy="305.749" r="5"/>
<circle cx="440.862" cy="283.634" r="5"/>
<circle cx="411.968" cy="428.894" r="5"/>
<circle cx="400.000" cy="242.772" r="5"/>
<circle cx="371.106" cy="388.032" r="5"/>
<circle cx="317.717" cy="365.917" r="5"/>
<circle cx="288.823" cy="511.177" r="5"/>
<circle cx="523.145" cy="102.701" r="5"/>
<circle cx="494.251" cy="247.961" r="5"/>
<circle cx="440.862" cy="225.846" r="5"/>
<circle cx="411.968" cy="371.106" r="5"/>
<circle cx="400.000" cy="184.984" r="5"/>
<circle cx="371.106" cy="330.244" r="5"/>
<circle cx="317.717" cy="308.129" r="5"/>
<circle cx="288.823" cy="453.389" r="5"/>
<circle cx="377.885" cy="131.595" r="5"/>
<circle cx="348.992" cy="276.855" r="5"/>
<circle cx="295.602" cy="254.740" r="5"/>
<circle cx="266.708" cy="400.000" r="5"/>
<circle cx="254.740" cy="213.878" r="5"/>
<circle cx="225.846" cy="359.138" r="5"/>
<circle cx="172.457" cy="337.023" r="5"/>
<circle cx="143.563" cy="482.283" r="5"/>
<circle cx="545.260" cy="49.312" r="5"/>
<circle cx="516.366" cy="194.571" r="5"/>
<circle cx="462.977" cy="172.457" r="5"/>
<circle cx="434.083" cy="317.717" r="5"/>
<circle cx="422.115" cy="131.595" r="5"/>
<circle cx="393.221" cy="276.855" r="5"/>
<circle cx="339.831" cy="254.740" r="5"/>
<circle cx="310.937" cy="400.000" r="5"/>
<circle cx="400.000" cy="78.206" r="5"/>
<circle cx="371.106" cy="223.465" r="5"/>
<circle cx="317.717" cy="201.351" r="5"/>
<circle cx="288.823" cy="346.611" r="5"/>
<circle cx="276.855" cy="160.489" r="5"/>
<circle cx="247.961" cy="305.749" r="5"/>
<circle cx="194.571" cy="283.634" r="5"/>
<circle cx="165.678" cy="428.894" r="5"/>
<circle cx="400.000" cy="20.418" r="5"/>
<circle cx="371.106" cy="165.678" r="5"/>
<circle cx="317.717" cy="143.563" r="5"/>
<circle cx="288.823" cy="288.823" r="5"/>
<circle cx="276.855" cy="102.701" r="5"/>
<circle cx="247.961" cy="247.961" r="5"/>
<circle cx="194.571" cy="225.846" r="5"/>
<circle cx="165.678" cy="371.106" r="5"/>
<circle cx="254.740" cy="49.312" r="5"/>
<circle cx="225.846" cy="194.571" r="5"/>
<circle cx="172.457" cy="172.457" r="5"/>
<circle cx="143.563" cy="317.717" r="5"/>
<circle cx="131.595" cy="131.595" r="5"/>
<circle cx="102.701" cy="276.855" r="5"/>
<circle cx="49.312" cy="254.740" r="5"/>
<circle cx="20.418" cy="400.000" r="5"/>
</g>
</svg>